%TF.GenerationSoftware,KiCad,Pcbnew,(5.1.10)-1*%
%TF.CreationDate,2021-06-07T23:37:25-05:00*%
%TF.ProjectId,phMeter,70684d65-7465-4722-9e6b-696361645f70,rev?*%
%TF.SameCoordinates,Original*%
%TF.FileFunction,Copper,L2,Bot*%
%TF.FilePolarity,Positive*%
%FSLAX46Y46*%
G04 Gerber Fmt 4.6, Leading zero omitted, Abs format (unit mm)*
G04 Created by KiCad (PCBNEW (5.1.10)-1) date 2021-06-07 23:37:25*
%MOMM*%
%LPD*%
G01*
G04 APERTURE LIST*
%TA.AperFunction,ComponentPad*%
%ADD10R,1.700000X1.700000*%
%TD*%
%TA.AperFunction,ComponentPad*%
%ADD11O,1.700000X1.700000*%
%TD*%
%TA.AperFunction,ComponentPad*%
%ADD12O,3.500000X7.000000*%
%TD*%
%TA.AperFunction,ComponentPad*%
%ADD13O,1.600000X2.500000*%
%TD*%
%TA.AperFunction,ViaPad*%
%ADD14C,0.800000*%
%TD*%
%TA.AperFunction,Conductor*%
%ADD15C,0.250000*%
%TD*%
%TA.AperFunction,Conductor*%
%ADD16C,0.254000*%
%TD*%
%TA.AperFunction,Conductor*%
%ADD17C,0.100000*%
%TD*%
G04 APERTURE END LIST*
D10*
%TO.P,J3,1*%
%TO.N,/SDA*%
X146177000Y-132969000D03*
D11*
%TO.P,J3,2*%
%TO.N,/SCL*%
X143637000Y-132969000D03*
%TO.P,J3,3*%
%TO.N,VDD*%
X141097000Y-132969000D03*
%TO.P,J3,4*%
%TO.N,GND*%
X138557000Y-132969000D03*
%TD*%
D12*
%TO.P,J1,S1*%
%TO.N,N/C*%
X146304000Y-81534000D03*
%TO.P,J1,S2*%
X156464000Y-81534000D03*
D13*
%TO.P,J1,1*%
%TO.N,Net-(J1-Pad1)*%
X151384000Y-86614000D03*
%TO.P,J1,2*%
%TO.N,Net-(J1-Pad2)*%
X148844000Y-86614000D03*
%TD*%
D14*
%TO.N,GND*%
X148082000Y-127254000D03*
X150876000Y-127254000D03*
X152146000Y-127254000D03*
X154686000Y-127254000D03*
X152146000Y-130302000D03*
X156464000Y-129286000D03*
X155448000Y-132334000D03*
X157226000Y-130556000D03*
X153065060Y-127674379D03*
%TO.N,/PROBE_V_OUT*%
X150622000Y-94107000D03*
X152146000Y-94107000D03*
%TO.N,GNDS*%
X154178000Y-117094000D03*
X152146000Y-117094000D03*
X150876000Y-117094000D03*
X148082000Y-117094000D03*
X146050000Y-117094000D03*
X144272000Y-117094000D03*
X143510000Y-114046000D03*
X157480000Y-115824000D03*
X158496000Y-116586000D03*
X148082000Y-109982000D03*
X149098000Y-109982000D03*
%TO.N,Net-(R4-Pad1)*%
X148336000Y-108458000D03*
%TO.N,GNDS*%
X150368000Y-105664000D03*
X149606000Y-108458000D03*
X146050000Y-101346000D03*
X150622000Y-95504000D03*
X141224000Y-95504000D03*
X143256000Y-82804000D03*
X143256000Y-83820000D03*
X138684000Y-83820000D03*
X150363593Y-114041593D03*
X147227209Y-105756791D03*
X142240000Y-103124000D03*
X139319000Y-87122000D03*
X149606000Y-99822000D03*
X139954000Y-98552000D03*
X143002000Y-81026000D03*
X143510000Y-109982000D03*
X145288000Y-109982000D03*
%TD*%
D15*
%TO.N,/PROBE_V_OUT*%
X151384000Y-88392000D02*
X151765000Y-88392000D01*
X151765000Y-88392000D02*
X152654000Y-87503000D01*
X152654000Y-87503000D02*
X152654000Y-85725000D01*
X152654000Y-85725000D02*
X151892000Y-84963000D01*
X150204990Y-87552361D02*
X150204990Y-85634010D01*
X151044629Y-88392000D02*
X150204990Y-87552361D01*
X151384000Y-88392000D02*
X151044629Y-88392000D01*
X150876000Y-84963000D02*
X151892000Y-84963000D01*
X150204990Y-85634010D02*
X150876000Y-84963000D01*
%TD*%
D16*
%TO.N,GND*%
X162154000Y-136754000D02*
X137566000Y-136754000D01*
X137566000Y-134073502D01*
X137790080Y-134240641D01*
X138052901Y-134365825D01*
X138200110Y-134410476D01*
X138430000Y-134289155D01*
X138430000Y-133096000D01*
X138410000Y-133096000D01*
X138410000Y-132842000D01*
X138430000Y-132842000D01*
X138430000Y-131648845D01*
X138684000Y-131648845D01*
X138684000Y-132842000D01*
X138704000Y-132842000D01*
X138704000Y-133096000D01*
X138684000Y-133096000D01*
X138684000Y-134289155D01*
X138913890Y-134410476D01*
X139061099Y-134365825D01*
X139323920Y-134240641D01*
X139557269Y-134066588D01*
X139752178Y-133850355D01*
X139901157Y-133600252D01*
X139958772Y-133437832D01*
X140006102Y-133552097D01*
X140140820Y-133753717D01*
X140312283Y-133925180D01*
X140513903Y-134059898D01*
X140737931Y-134152693D01*
X140975757Y-134200000D01*
X141218243Y-134200000D01*
X141456069Y-134152693D01*
X141680097Y-134059898D01*
X141881717Y-133925180D01*
X142053180Y-133753717D01*
X142187898Y-133552097D01*
X142280693Y-133328069D01*
X142328000Y-133090243D01*
X142328000Y-132847757D01*
X142406000Y-132847757D01*
X142406000Y-133090243D01*
X142453307Y-133328069D01*
X142546102Y-133552097D01*
X142680820Y-133753717D01*
X142852283Y-133925180D01*
X143053903Y-134059898D01*
X143277931Y-134152693D01*
X143515757Y-134200000D01*
X143758243Y-134200000D01*
X143996069Y-134152693D01*
X144220097Y-134059898D01*
X144421717Y-133925180D01*
X144593180Y-133753717D01*
X144727898Y-133552097D01*
X144820693Y-133328069D01*
X144868000Y-133090243D01*
X144868000Y-132847757D01*
X144820693Y-132609931D01*
X144727898Y-132385903D01*
X144593180Y-132184283D01*
X144527897Y-132119000D01*
X144944157Y-132119000D01*
X144944157Y-133819000D01*
X144951513Y-133893689D01*
X144973299Y-133965508D01*
X145008678Y-134031696D01*
X145056289Y-134089711D01*
X145114304Y-134137322D01*
X145180492Y-134172701D01*
X145252311Y-134194487D01*
X145327000Y-134201843D01*
X147027000Y-134201843D01*
X147101689Y-134194487D01*
X147173508Y-134172701D01*
X147239696Y-134137322D01*
X147297711Y-134089711D01*
X147345322Y-134031696D01*
X147380701Y-133965508D01*
X147402487Y-133893689D01*
X147409843Y-133819000D01*
X147409843Y-132119000D01*
X147402487Y-132044311D01*
X147380701Y-131972492D01*
X147345322Y-131906304D01*
X147297711Y-131848289D01*
X147239696Y-131800678D01*
X147173508Y-131765299D01*
X147101689Y-131743513D01*
X147027000Y-131736157D01*
X145327000Y-131736157D01*
X145252311Y-131743513D01*
X145180492Y-131765299D01*
X145114304Y-131800678D01*
X145056289Y-131848289D01*
X145008678Y-131906304D01*
X144973299Y-131972492D01*
X144951513Y-132044311D01*
X144944157Y-132119000D01*
X144527897Y-132119000D01*
X144421717Y-132012820D01*
X144220097Y-131878102D01*
X143996069Y-131785307D01*
X143758243Y-131738000D01*
X143515757Y-131738000D01*
X143277931Y-131785307D01*
X143053903Y-131878102D01*
X142852283Y-132012820D01*
X142680820Y-132184283D01*
X142546102Y-132385903D01*
X142453307Y-132609931D01*
X142406000Y-132847757D01*
X142328000Y-132847757D01*
X142280693Y-132609931D01*
X142187898Y-132385903D01*
X142053180Y-132184283D01*
X141881717Y-132012820D01*
X141680097Y-131878102D01*
X141456069Y-131785307D01*
X141218243Y-131738000D01*
X140975757Y-131738000D01*
X140737931Y-131785307D01*
X140513903Y-131878102D01*
X140312283Y-132012820D01*
X140140820Y-132184283D01*
X140006102Y-132385903D01*
X139958772Y-132500168D01*
X139901157Y-132337748D01*
X139752178Y-132087645D01*
X139557269Y-131871412D01*
X139323920Y-131697359D01*
X139061099Y-131572175D01*
X138913890Y-131527524D01*
X138684000Y-131648845D01*
X138430000Y-131648845D01*
X138200110Y-131527524D01*
X138052901Y-131572175D01*
X137790080Y-131697359D01*
X137566000Y-131864498D01*
X137566000Y-124587000D01*
X162154000Y-124587000D01*
X162154000Y-136754000D01*
%TA.AperFunction,Conductor*%
D17*
G36*
X162154000Y-136754000D02*
G01*
X137566000Y-136754000D01*
X137566000Y-134073502D01*
X137790080Y-134240641D01*
X138052901Y-134365825D01*
X138200110Y-134410476D01*
X138430000Y-134289155D01*
X138430000Y-133096000D01*
X138410000Y-133096000D01*
X138410000Y-132842000D01*
X138430000Y-132842000D01*
X138430000Y-131648845D01*
X138684000Y-131648845D01*
X138684000Y-132842000D01*
X138704000Y-132842000D01*
X138704000Y-133096000D01*
X138684000Y-133096000D01*
X138684000Y-134289155D01*
X138913890Y-134410476D01*
X139061099Y-134365825D01*
X139323920Y-134240641D01*
X139557269Y-134066588D01*
X139752178Y-133850355D01*
X139901157Y-133600252D01*
X139958772Y-133437832D01*
X140006102Y-133552097D01*
X140140820Y-133753717D01*
X140312283Y-133925180D01*
X140513903Y-134059898D01*
X140737931Y-134152693D01*
X140975757Y-134200000D01*
X141218243Y-134200000D01*
X141456069Y-134152693D01*
X141680097Y-134059898D01*
X141881717Y-133925180D01*
X142053180Y-133753717D01*
X142187898Y-133552097D01*
X142280693Y-133328069D01*
X142328000Y-133090243D01*
X142328000Y-132847757D01*
X142406000Y-132847757D01*
X142406000Y-133090243D01*
X142453307Y-133328069D01*
X142546102Y-133552097D01*
X142680820Y-133753717D01*
X142852283Y-133925180D01*
X143053903Y-134059898D01*
X143277931Y-134152693D01*
X143515757Y-134200000D01*
X143758243Y-134200000D01*
X143996069Y-134152693D01*
X144220097Y-134059898D01*
X144421717Y-133925180D01*
X144593180Y-133753717D01*
X144727898Y-133552097D01*
X144820693Y-133328069D01*
X144868000Y-133090243D01*
X144868000Y-132847757D01*
X144820693Y-132609931D01*
X144727898Y-132385903D01*
X144593180Y-132184283D01*
X144527897Y-132119000D01*
X144944157Y-132119000D01*
X144944157Y-133819000D01*
X144951513Y-133893689D01*
X144973299Y-133965508D01*
X145008678Y-134031696D01*
X145056289Y-134089711D01*
X145114304Y-134137322D01*
X145180492Y-134172701D01*
X145252311Y-134194487D01*
X145327000Y-134201843D01*
X147027000Y-134201843D01*
X147101689Y-134194487D01*
X147173508Y-134172701D01*
X147239696Y-134137322D01*
X147297711Y-134089711D01*
X147345322Y-134031696D01*
X147380701Y-133965508D01*
X147402487Y-133893689D01*
X147409843Y-133819000D01*
X147409843Y-132119000D01*
X147402487Y-132044311D01*
X147380701Y-131972492D01*
X147345322Y-131906304D01*
X147297711Y-131848289D01*
X147239696Y-131800678D01*
X147173508Y-131765299D01*
X147101689Y-131743513D01*
X147027000Y-131736157D01*
X145327000Y-131736157D01*
X145252311Y-131743513D01*
X145180492Y-131765299D01*
X145114304Y-131800678D01*
X145056289Y-131848289D01*
X145008678Y-131906304D01*
X144973299Y-131972492D01*
X144951513Y-132044311D01*
X144944157Y-132119000D01*
X144527897Y-132119000D01*
X144421717Y-132012820D01*
X144220097Y-131878102D01*
X143996069Y-131785307D01*
X143758243Y-131738000D01*
X143515757Y-131738000D01*
X143277931Y-131785307D01*
X143053903Y-131878102D01*
X142852283Y-132012820D01*
X142680820Y-132184283D01*
X142546102Y-132385903D01*
X142453307Y-132609931D01*
X142406000Y-132847757D01*
X142328000Y-132847757D01*
X142280693Y-132609931D01*
X142187898Y-132385903D01*
X142053180Y-132184283D01*
X141881717Y-132012820D01*
X141680097Y-131878102D01*
X141456069Y-131785307D01*
X141218243Y-131738000D01*
X140975757Y-131738000D01*
X140737931Y-131785307D01*
X140513903Y-131878102D01*
X140312283Y-132012820D01*
X140140820Y-132184283D01*
X140006102Y-132385903D01*
X139958772Y-132500168D01*
X139901157Y-132337748D01*
X139752178Y-132087645D01*
X139557269Y-131871412D01*
X139323920Y-131697359D01*
X139061099Y-131572175D01*
X138913890Y-131527524D01*
X138684000Y-131648845D01*
X138430000Y-131648845D01*
X138200110Y-131527524D01*
X138052901Y-131572175D01*
X137790080Y-131697359D01*
X137566000Y-131864498D01*
X137566000Y-124587000D01*
X162154000Y-124587000D01*
X162154000Y-136754000D01*
G37*
%TD.AperFunction*%
%TD*%
D16*
%TO.N,GNDS*%
X162154000Y-120015000D02*
X137566000Y-120015000D01*
X137566000Y-108381078D01*
X147555000Y-108381078D01*
X147555000Y-108534922D01*
X147585013Y-108685809D01*
X147643887Y-108827942D01*
X147729358Y-108955859D01*
X147838141Y-109064642D01*
X147966058Y-109150113D01*
X148108191Y-109208987D01*
X148259078Y-109239000D01*
X148412922Y-109239000D01*
X148563809Y-109208987D01*
X148705942Y-109150113D01*
X148833859Y-109064642D01*
X148942642Y-108955859D01*
X149028113Y-108827942D01*
X149086987Y-108685809D01*
X149117000Y-108534922D01*
X149117000Y-108381078D01*
X149086987Y-108230191D01*
X149028113Y-108088058D01*
X148942642Y-107960141D01*
X148833859Y-107851358D01*
X148705942Y-107765887D01*
X148563809Y-107707013D01*
X148412922Y-107677000D01*
X148259078Y-107677000D01*
X148108191Y-107707013D01*
X147966058Y-107765887D01*
X147838141Y-107851358D01*
X147729358Y-107960141D01*
X147643887Y-108088058D01*
X147585013Y-108230191D01*
X147555000Y-108381078D01*
X137566000Y-108381078D01*
X137566000Y-92329000D01*
X146812000Y-92329000D01*
X146812000Y-94488000D01*
X146819321Y-94562329D01*
X146841002Y-94633802D01*
X146876210Y-94699672D01*
X146923592Y-94757408D01*
X146981328Y-94804790D01*
X147047198Y-94839998D01*
X147118671Y-94861679D01*
X147193000Y-94869000D01*
X150449558Y-94869000D01*
X150545078Y-94888000D01*
X150698922Y-94888000D01*
X150794442Y-94869000D01*
X151973558Y-94869000D01*
X152069078Y-94888000D01*
X152222922Y-94888000D01*
X152318442Y-94869000D01*
X154051000Y-94869000D01*
X154125329Y-94861679D01*
X154196802Y-94839998D01*
X154262672Y-94804790D01*
X154320408Y-94757408D01*
X154367790Y-94699672D01*
X154402998Y-94633802D01*
X154424679Y-94562329D01*
X154432000Y-94488000D01*
X154432000Y-92075000D01*
X154424679Y-92000671D01*
X154402998Y-91929198D01*
X154367790Y-91863328D01*
X154320408Y-91805592D01*
X153939408Y-91424592D01*
X153881672Y-91377210D01*
X153815802Y-91342002D01*
X153744329Y-91320321D01*
X153670000Y-91313000D01*
X152557816Y-91313000D01*
X152400000Y-91155184D01*
X152400000Y-88472591D01*
X152994220Y-87878372D01*
X153013527Y-87862527D01*
X153076759Y-87785479D01*
X153123745Y-87697575D01*
X153152678Y-87602193D01*
X153160000Y-87527854D01*
X153160000Y-87527853D01*
X153162448Y-87503000D01*
X153160000Y-87478146D01*
X153160000Y-85749854D01*
X153162448Y-85725000D01*
X153152678Y-85625807D01*
X153123745Y-85530425D01*
X153076759Y-85442521D01*
X153013527Y-85365473D01*
X152994220Y-85349628D01*
X152267376Y-84622785D01*
X152251527Y-84603473D01*
X152174479Y-84540241D01*
X152086575Y-84493255D01*
X151991193Y-84464322D01*
X151916854Y-84457000D01*
X151916846Y-84457000D01*
X151892000Y-84454553D01*
X151867154Y-84457000D01*
X150900845Y-84457000D01*
X150875999Y-84454553D01*
X150851153Y-84457000D01*
X150851146Y-84457000D01*
X150786694Y-84463348D01*
X150776806Y-84464322D01*
X150754607Y-84471056D01*
X150681425Y-84493255D01*
X150593521Y-84540241D01*
X150516473Y-84603473D01*
X150500628Y-84622780D01*
X149864770Y-85258639D01*
X149845464Y-85274483D01*
X149782232Y-85351531D01*
X149774780Y-85365473D01*
X149751777Y-85408508D01*
X149683134Y-85324866D01*
X149503302Y-85177283D01*
X149298135Y-85067619D01*
X149075515Y-85000088D01*
X148844000Y-84977286D01*
X148612484Y-85000088D01*
X148389864Y-85067619D01*
X148184697Y-85177283D01*
X148004866Y-85324866D01*
X147857283Y-85504698D01*
X147747619Y-85709865D01*
X147680088Y-85932485D01*
X147663000Y-86105985D01*
X147663000Y-87122016D01*
X147680088Y-87295516D01*
X147747619Y-87518136D01*
X147857284Y-87723303D01*
X148004867Y-87903134D01*
X148184698Y-88050717D01*
X148389865Y-88160381D01*
X148612485Y-88227912D01*
X148844000Y-88250714D01*
X149075516Y-88227912D01*
X149298136Y-88160381D01*
X149503303Y-88050717D01*
X149683134Y-87903134D01*
X149765251Y-87803073D01*
X149782231Y-87834840D01*
X149845463Y-87911888D01*
X149864775Y-87927737D01*
X150368000Y-88430963D01*
X150368000Y-91028184D01*
X150210184Y-91186000D01*
X147955000Y-91186000D01*
X147880671Y-91193321D01*
X147809198Y-91215002D01*
X147743328Y-91250210D01*
X147685592Y-91297592D01*
X146923592Y-92059592D01*
X146876210Y-92117328D01*
X146841002Y-92183198D01*
X146819321Y-92254671D01*
X146812000Y-92329000D01*
X137566000Y-92329000D01*
X137566000Y-79679323D01*
X144173000Y-79679323D01*
X144173000Y-83388678D01*
X144203836Y-83701749D01*
X144325689Y-84103444D01*
X144523567Y-84473648D01*
X144789866Y-84798135D01*
X145114353Y-85064434D01*
X145484557Y-85262312D01*
X145886252Y-85384165D01*
X146304000Y-85425310D01*
X146721749Y-85384165D01*
X147123444Y-85262312D01*
X147493648Y-85064434D01*
X147818135Y-84798135D01*
X148084434Y-84473648D01*
X148282312Y-84103444D01*
X148404165Y-83701749D01*
X148435000Y-83388678D01*
X148435000Y-79679323D01*
X154333000Y-79679323D01*
X154333000Y-83388678D01*
X154363836Y-83701749D01*
X154485689Y-84103444D01*
X154683567Y-84473648D01*
X154949866Y-84798135D01*
X155274353Y-85064434D01*
X155644557Y-85262312D01*
X156046252Y-85384165D01*
X156464000Y-85425310D01*
X156881749Y-85384165D01*
X157283444Y-85262312D01*
X157653648Y-85064434D01*
X157978135Y-84798135D01*
X158244434Y-84473648D01*
X158442312Y-84103444D01*
X158564165Y-83701749D01*
X158595000Y-83388678D01*
X158595000Y-79679322D01*
X158564165Y-79366251D01*
X158442312Y-78964556D01*
X158244434Y-78594352D01*
X157978135Y-78269865D01*
X157653648Y-78003566D01*
X157283443Y-77805688D01*
X156881748Y-77683835D01*
X156464000Y-77642690D01*
X156046251Y-77683835D01*
X155644556Y-77805688D01*
X155274352Y-78003566D01*
X154949865Y-78269865D01*
X154683566Y-78594352D01*
X154485688Y-78964557D01*
X154363835Y-79366252D01*
X154333000Y-79679323D01*
X148435000Y-79679323D01*
X148435000Y-79679322D01*
X148404165Y-79366251D01*
X148282312Y-78964556D01*
X148084434Y-78594352D01*
X147818135Y-78269865D01*
X147493648Y-78003566D01*
X147123443Y-77805688D01*
X146721748Y-77683835D01*
X146304000Y-77642690D01*
X145886251Y-77683835D01*
X145484556Y-77805688D01*
X145114352Y-78003566D01*
X144789865Y-78269865D01*
X144523566Y-78594352D01*
X144325688Y-78964557D01*
X144203835Y-79366252D01*
X144173000Y-79679323D01*
X137566000Y-79679323D01*
X137566000Y-74066000D01*
X162154001Y-74066000D01*
X162154000Y-120015000D01*
%TA.AperFunction,Conductor*%
D17*
G36*
X162154000Y-120015000D02*
G01*
X137566000Y-120015000D01*
X137566000Y-108381078D01*
X147555000Y-108381078D01*
X147555000Y-108534922D01*
X147585013Y-108685809D01*
X147643887Y-108827942D01*
X147729358Y-108955859D01*
X147838141Y-109064642D01*
X147966058Y-109150113D01*
X148108191Y-109208987D01*
X148259078Y-109239000D01*
X148412922Y-109239000D01*
X148563809Y-109208987D01*
X148705942Y-109150113D01*
X148833859Y-109064642D01*
X148942642Y-108955859D01*
X149028113Y-108827942D01*
X149086987Y-108685809D01*
X149117000Y-108534922D01*
X149117000Y-108381078D01*
X149086987Y-108230191D01*
X149028113Y-108088058D01*
X148942642Y-107960141D01*
X148833859Y-107851358D01*
X148705942Y-107765887D01*
X148563809Y-107707013D01*
X148412922Y-107677000D01*
X148259078Y-107677000D01*
X148108191Y-107707013D01*
X147966058Y-107765887D01*
X147838141Y-107851358D01*
X147729358Y-107960141D01*
X147643887Y-108088058D01*
X147585013Y-108230191D01*
X147555000Y-108381078D01*
X137566000Y-108381078D01*
X137566000Y-92329000D01*
X146812000Y-92329000D01*
X146812000Y-94488000D01*
X146819321Y-94562329D01*
X146841002Y-94633802D01*
X146876210Y-94699672D01*
X146923592Y-94757408D01*
X146981328Y-94804790D01*
X147047198Y-94839998D01*
X147118671Y-94861679D01*
X147193000Y-94869000D01*
X150449558Y-94869000D01*
X150545078Y-94888000D01*
X150698922Y-94888000D01*
X150794442Y-94869000D01*
X151973558Y-94869000D01*
X152069078Y-94888000D01*
X152222922Y-94888000D01*
X152318442Y-94869000D01*
X154051000Y-94869000D01*
X154125329Y-94861679D01*
X154196802Y-94839998D01*
X154262672Y-94804790D01*
X154320408Y-94757408D01*
X154367790Y-94699672D01*
X154402998Y-94633802D01*
X154424679Y-94562329D01*
X154432000Y-94488000D01*
X154432000Y-92075000D01*
X154424679Y-92000671D01*
X154402998Y-91929198D01*
X154367790Y-91863328D01*
X154320408Y-91805592D01*
X153939408Y-91424592D01*
X153881672Y-91377210D01*
X153815802Y-91342002D01*
X153744329Y-91320321D01*
X153670000Y-91313000D01*
X152557816Y-91313000D01*
X152400000Y-91155184D01*
X152400000Y-88472591D01*
X152994220Y-87878372D01*
X153013527Y-87862527D01*
X153076759Y-87785479D01*
X153123745Y-87697575D01*
X153152678Y-87602193D01*
X153160000Y-87527854D01*
X153160000Y-87527853D01*
X153162448Y-87503000D01*
X153160000Y-87478146D01*
X153160000Y-85749854D01*
X153162448Y-85725000D01*
X153152678Y-85625807D01*
X153123745Y-85530425D01*
X153076759Y-85442521D01*
X153013527Y-85365473D01*
X152994220Y-85349628D01*
X152267376Y-84622785D01*
X152251527Y-84603473D01*
X152174479Y-84540241D01*
X152086575Y-84493255D01*
X151991193Y-84464322D01*
X151916854Y-84457000D01*
X151916846Y-84457000D01*
X151892000Y-84454553D01*
X151867154Y-84457000D01*
X150900845Y-84457000D01*
X150875999Y-84454553D01*
X150851153Y-84457000D01*
X150851146Y-84457000D01*
X150786694Y-84463348D01*
X150776806Y-84464322D01*
X150754607Y-84471056D01*
X150681425Y-84493255D01*
X150593521Y-84540241D01*
X150516473Y-84603473D01*
X150500628Y-84622780D01*
X149864770Y-85258639D01*
X149845464Y-85274483D01*
X149782232Y-85351531D01*
X149774780Y-85365473D01*
X149751777Y-85408508D01*
X149683134Y-85324866D01*
X149503302Y-85177283D01*
X149298135Y-85067619D01*
X149075515Y-85000088D01*
X148844000Y-84977286D01*
X148612484Y-85000088D01*
X148389864Y-85067619D01*
X148184697Y-85177283D01*
X148004866Y-85324866D01*
X147857283Y-85504698D01*
X147747619Y-85709865D01*
X147680088Y-85932485D01*
X147663000Y-86105985D01*
X147663000Y-87122016D01*
X147680088Y-87295516D01*
X147747619Y-87518136D01*
X147857284Y-87723303D01*
X148004867Y-87903134D01*
X148184698Y-88050717D01*
X148389865Y-88160381D01*
X148612485Y-88227912D01*
X148844000Y-88250714D01*
X149075516Y-88227912D01*
X149298136Y-88160381D01*
X149503303Y-88050717D01*
X149683134Y-87903134D01*
X149765251Y-87803073D01*
X149782231Y-87834840D01*
X149845463Y-87911888D01*
X149864775Y-87927737D01*
X150368000Y-88430963D01*
X150368000Y-91028184D01*
X150210184Y-91186000D01*
X147955000Y-91186000D01*
X147880671Y-91193321D01*
X147809198Y-91215002D01*
X147743328Y-91250210D01*
X147685592Y-91297592D01*
X146923592Y-92059592D01*
X146876210Y-92117328D01*
X146841002Y-92183198D01*
X146819321Y-92254671D01*
X146812000Y-92329000D01*
X137566000Y-92329000D01*
X137566000Y-79679323D01*
X144173000Y-79679323D01*
X144173000Y-83388678D01*
X144203836Y-83701749D01*
X144325689Y-84103444D01*
X144523567Y-84473648D01*
X144789866Y-84798135D01*
X145114353Y-85064434D01*
X145484557Y-85262312D01*
X145886252Y-85384165D01*
X146304000Y-85425310D01*
X146721749Y-85384165D01*
X147123444Y-85262312D01*
X147493648Y-85064434D01*
X147818135Y-84798135D01*
X148084434Y-84473648D01*
X148282312Y-84103444D01*
X148404165Y-83701749D01*
X148435000Y-83388678D01*
X148435000Y-79679323D01*
X154333000Y-79679323D01*
X154333000Y-83388678D01*
X154363836Y-83701749D01*
X154485689Y-84103444D01*
X154683567Y-84473648D01*
X154949866Y-84798135D01*
X155274353Y-85064434D01*
X155644557Y-85262312D01*
X156046252Y-85384165D01*
X156464000Y-85425310D01*
X156881749Y-85384165D01*
X157283444Y-85262312D01*
X157653648Y-85064434D01*
X157978135Y-84798135D01*
X158244434Y-84473648D01*
X158442312Y-84103444D01*
X158564165Y-83701749D01*
X158595000Y-83388678D01*
X158595000Y-79679322D01*
X158564165Y-79366251D01*
X158442312Y-78964556D01*
X158244434Y-78594352D01*
X157978135Y-78269865D01*
X157653648Y-78003566D01*
X157283443Y-77805688D01*
X156881748Y-77683835D01*
X156464000Y-77642690D01*
X156046251Y-77683835D01*
X155644556Y-77805688D01*
X155274352Y-78003566D01*
X154949865Y-78269865D01*
X154683566Y-78594352D01*
X154485688Y-78964557D01*
X154363835Y-79366252D01*
X154333000Y-79679323D01*
X148435000Y-79679323D01*
X148435000Y-79679322D01*
X148404165Y-79366251D01*
X148282312Y-78964556D01*
X148084434Y-78594352D01*
X147818135Y-78269865D01*
X147493648Y-78003566D01*
X147123443Y-77805688D01*
X146721748Y-77683835D01*
X146304000Y-77642690D01*
X145886251Y-77683835D01*
X145484556Y-77805688D01*
X145114352Y-78003566D01*
X144789865Y-78269865D01*
X144523566Y-78594352D01*
X144325688Y-78964557D01*
X144203835Y-79366252D01*
X144173000Y-79679323D01*
X137566000Y-79679323D01*
X137566000Y-74066000D01*
X162154001Y-74066000D01*
X162154000Y-120015000D01*
G37*
%TD.AperFunction*%
%TD*%
D16*
%TO.N,/PROBE_V_OUT*%
X151892000Y-91313000D02*
X151894440Y-91337776D01*
X151901667Y-91361601D01*
X151913403Y-91383557D01*
X151929197Y-91402803D01*
X152310197Y-91783803D01*
X152329443Y-91799597D01*
X152351399Y-91811333D01*
X152375224Y-91818560D01*
X152400000Y-91821000D01*
X153617394Y-91821000D01*
X153924000Y-92127606D01*
X153924000Y-94361000D01*
X147320000Y-94361000D01*
X147320000Y-92381606D01*
X148007606Y-91694000D01*
X150368000Y-91694000D01*
X150392776Y-91691560D01*
X150416601Y-91684333D01*
X150438557Y-91672597D01*
X150457803Y-91656803D01*
X150838803Y-91275803D01*
X150854597Y-91256557D01*
X150866333Y-91234601D01*
X150873560Y-91210776D01*
X150876000Y-91186000D01*
X150876000Y-88519000D01*
X151892000Y-88519000D01*
X151892000Y-91313000D01*
%TA.AperFunction,Conductor*%
D17*
G36*
X151892000Y-91313000D02*
G01*
X151894440Y-91337776D01*
X151901667Y-91361601D01*
X151913403Y-91383557D01*
X151929197Y-91402803D01*
X152310197Y-91783803D01*
X152329443Y-91799597D01*
X152351399Y-91811333D01*
X152375224Y-91818560D01*
X152400000Y-91821000D01*
X153617394Y-91821000D01*
X153924000Y-92127606D01*
X153924000Y-94361000D01*
X147320000Y-94361000D01*
X147320000Y-92381606D01*
X148007606Y-91694000D01*
X150368000Y-91694000D01*
X150392776Y-91691560D01*
X150416601Y-91684333D01*
X150438557Y-91672597D01*
X150457803Y-91656803D01*
X150838803Y-91275803D01*
X150854597Y-91256557D01*
X150866333Y-91234601D01*
X150873560Y-91210776D01*
X150876000Y-91186000D01*
X150876000Y-88519000D01*
X151892000Y-88519000D01*
X151892000Y-91313000D01*
G37*
%TD.AperFunction*%
%TD*%
M02*
