M48
; DRILL file {KiCad (5.1.10)-1} date 06/07/21 23:37:22
; FORMAT={-:-/ absolute / inch / decimal}
; #@! TF.CreationDate,2021-06-07T23:37:22-05:00
; #@! TF.GenerationSoftware,Kicad,Pcbnew,(5.1.10)-1
FMAT,2
INCH
T1C0.0157
T2C0.0350
T3C0.0394
T4C0.0791
%
G90
G05
T1
X5.46Y-3.3
X5.485Y-3.43
X5.51Y-3.88
X5.56Y-3.76
X5.6Y-4.06
X5.63Y-3.19
X5.64Y-3.26
X5.64Y-3.3
X5.65Y-4.33
X5.65Y-4.49
X5.68Y-4.61
X5.72Y-4.33
X5.75Y-3.99
X5.75Y-4.61
X5.7963Y-4.1637
X5.83Y-4.33
X5.83Y-4.61
X5.83Y-5.01
X5.84Y-4.27
X5.87Y-4.33
X5.89Y-3.93
X5.89Y-4.27
X5.9198Y-4.4898
X5.92Y-4.16
X5.93Y-3.705
X5.93Y-3.76
X5.94Y-4.61
X5.94Y-5.01
X5.99Y-3.705
X5.99Y-4.61
X5.99Y-5.01
X5.99Y-5.13
X6.0262Y-5.0266
X6.07Y-4.61
X6.09Y-5.01
X6.12Y-5.21
X6.16Y-5.09
X6.19Y-5.14
X6.2Y-4.56
X6.24Y-4.59
T2
X5.86Y-3.41
X5.96Y-3.41
T3
X5.455Y-5.235
X5.555Y-5.235
X5.655Y-5.235
X5.755Y-5.235
T4
X5.76Y-3.21
X6.16Y-3.21
T0
M30
