%TF.GenerationSoftware,KiCad,Pcbnew,(5.1.10)-1*%
%TF.CreationDate,2021-06-08T21:02:16-05:00*%
%TF.ProjectId,phMeter,70684d65-7465-4722-9e6b-696361645f70,rev?*%
%TF.SameCoordinates,Original*%
%TF.FileFunction,Soldermask,Top*%
%TF.FilePolarity,Negative*%
%FSLAX46Y46*%
G04 Gerber Fmt 4.6, Leading zero omitted, Abs format (unit mm)*
G04 Created by KiCad (PCBNEW (5.1.10)-1) date 2021-06-08 21:02:16*
%MOMM*%
%LPD*%
G01*
G04 APERTURE LIST*
%ADD10R,1.700000X1.700000*%
%ADD11O,1.700000X1.700000*%
%ADD12O,3.500000X7.000000*%
%ADD13O,1.600000X2.500000*%
%ADD14R,1.060000X0.650000*%
%ADD15C,0.254000*%
%ADD16C,0.100000*%
G04 APERTURE END LIST*
%TO.C,R3*%
G36*
G01*
X149608250Y-103333000D02*
X149095750Y-103333000D01*
G75*
G02*
X148877000Y-103114250I0J218750D01*
G01*
X148877000Y-102676750D01*
G75*
G02*
X149095750Y-102458000I218750J0D01*
G01*
X149608250Y-102458000D01*
G75*
G02*
X149827000Y-102676750I0J-218750D01*
G01*
X149827000Y-103114250D01*
G75*
G02*
X149608250Y-103333000I-218750J0D01*
G01*
G37*
G36*
G01*
X149608250Y-101758000D02*
X149095750Y-101758000D01*
G75*
G02*
X148877000Y-101539250I0J218750D01*
G01*
X148877000Y-101101750D01*
G75*
G02*
X149095750Y-100883000I218750J0D01*
G01*
X149608250Y-100883000D01*
G75*
G02*
X149827000Y-101101750I0J-218750D01*
G01*
X149827000Y-101539250D01*
G75*
G02*
X149608250Y-101758000I-218750J0D01*
G01*
G37*
%TD*%
D10*
%TO.C,J3*%
X146177000Y-132969000D03*
D11*
X143637000Y-132969000D03*
X141097000Y-132969000D03*
X138557000Y-132969000D03*
%TD*%
D12*
%TO.C,J1*%
X146304000Y-81534000D03*
X156464000Y-81534000D03*
D13*
X151384000Y-86614000D03*
X148844000Y-86614000D03*
%TD*%
%TO.C,C5*%
G36*
G01*
X150464000Y-104650250D02*
X150464000Y-104137750D01*
G75*
G02*
X150682750Y-103919000I218750J0D01*
G01*
X151120250Y-103919000D01*
G75*
G02*
X151339000Y-104137750I0J-218750D01*
G01*
X151339000Y-104650250D01*
G75*
G02*
X151120250Y-104869000I-218750J0D01*
G01*
X150682750Y-104869000D01*
G75*
G02*
X150464000Y-104650250I0J218750D01*
G01*
G37*
G36*
G01*
X148889000Y-104650250D02*
X148889000Y-104137750D01*
G75*
G02*
X149107750Y-103919000I218750J0D01*
G01*
X149545250Y-103919000D01*
G75*
G02*
X149764000Y-104137750I0J-218750D01*
G01*
X149764000Y-104650250D01*
G75*
G02*
X149545250Y-104869000I-218750J0D01*
G01*
X149107750Y-104869000D01*
G75*
G02*
X148889000Y-104650250I0J218750D01*
G01*
G37*
%TD*%
%TO.C,C1*%
G36*
G01*
X146767000Y-113789750D02*
X146767000Y-114302250D01*
G75*
G02*
X146548250Y-114521000I-218750J0D01*
G01*
X146110750Y-114521000D01*
G75*
G02*
X145892000Y-114302250I0J218750D01*
G01*
X145892000Y-113789750D01*
G75*
G02*
X146110750Y-113571000I218750J0D01*
G01*
X146548250Y-113571000D01*
G75*
G02*
X146767000Y-113789750I0J-218750D01*
G01*
G37*
G36*
G01*
X145192000Y-113789750D02*
X145192000Y-114302250D01*
G75*
G02*
X144973250Y-114521000I-218750J0D01*
G01*
X144535750Y-114521000D01*
G75*
G02*
X144317000Y-114302250I0J218750D01*
G01*
X144317000Y-113789750D01*
G75*
G02*
X144535750Y-113571000I218750J0D01*
G01*
X144973250Y-113571000D01*
G75*
G02*
X145192000Y-113789750I0J-218750D01*
G01*
G37*
%TD*%
%TO.C,C2*%
G36*
G01*
X145031750Y-106725000D02*
X145544250Y-106725000D01*
G75*
G02*
X145763000Y-106943750I0J-218750D01*
G01*
X145763000Y-107381250D01*
G75*
G02*
X145544250Y-107600000I-218750J0D01*
G01*
X145031750Y-107600000D01*
G75*
G02*
X144813000Y-107381250I0J218750D01*
G01*
X144813000Y-106943750D01*
G75*
G02*
X145031750Y-106725000I218750J0D01*
G01*
G37*
G36*
G01*
X145031750Y-108300000D02*
X145544250Y-108300000D01*
G75*
G02*
X145763000Y-108518750I0J-218750D01*
G01*
X145763000Y-108956250D01*
G75*
G02*
X145544250Y-109175000I-218750J0D01*
G01*
X145031750Y-109175000D01*
G75*
G02*
X144813000Y-108956250I0J218750D01*
G01*
X144813000Y-108518750D01*
G75*
G02*
X145031750Y-108300000I218750J0D01*
G01*
G37*
%TD*%
%TO.C,C3*%
G36*
G01*
X143253750Y-108300000D02*
X143766250Y-108300000D01*
G75*
G02*
X143985000Y-108518750I0J-218750D01*
G01*
X143985000Y-108956250D01*
G75*
G02*
X143766250Y-109175000I-218750J0D01*
G01*
X143253750Y-109175000D01*
G75*
G02*
X143035000Y-108956250I0J218750D01*
G01*
X143035000Y-108518750D01*
G75*
G02*
X143253750Y-108300000I218750J0D01*
G01*
G37*
G36*
G01*
X143253750Y-106725000D02*
X143766250Y-106725000D01*
G75*
G02*
X143985000Y-106943750I0J-218750D01*
G01*
X143985000Y-107381250D01*
G75*
G02*
X143766250Y-107600000I-218750J0D01*
G01*
X143253750Y-107600000D01*
G75*
G02*
X143035000Y-107381250I0J218750D01*
G01*
X143035000Y-106943750D01*
G75*
G02*
X143253750Y-106725000I218750J0D01*
G01*
G37*
%TD*%
%TO.C,C4*%
G36*
G01*
X148940000Y-114302250D02*
X148940000Y-113789750D01*
G75*
G02*
X149158750Y-113571000I218750J0D01*
G01*
X149596250Y-113571000D01*
G75*
G02*
X149815000Y-113789750I0J-218750D01*
G01*
X149815000Y-114302250D01*
G75*
G02*
X149596250Y-114521000I-218750J0D01*
G01*
X149158750Y-114521000D01*
G75*
G02*
X148940000Y-114302250I0J218750D01*
G01*
G37*
G36*
G01*
X147365000Y-114302250D02*
X147365000Y-113789750D01*
G75*
G02*
X147583750Y-113571000I218750J0D01*
G01*
X148021250Y-113571000D01*
G75*
G02*
X148240000Y-113789750I0J-218750D01*
G01*
X148240000Y-114302250D01*
G75*
G02*
X148021250Y-114521000I-218750J0D01*
G01*
X147583750Y-114521000D01*
G75*
G02*
X147365000Y-114302250I0J218750D01*
G01*
G37*
%TD*%
%TO.C,C8*%
G36*
G01*
X156052000Y-116080250D02*
X156052000Y-115567750D01*
G75*
G02*
X156270750Y-115349000I218750J0D01*
G01*
X156708250Y-115349000D01*
G75*
G02*
X156927000Y-115567750I0J-218750D01*
G01*
X156927000Y-116080250D01*
G75*
G02*
X156708250Y-116299000I-218750J0D01*
G01*
X156270750Y-116299000D01*
G75*
G02*
X156052000Y-116080250I0J218750D01*
G01*
G37*
G36*
G01*
X154477000Y-116080250D02*
X154477000Y-115567750D01*
G75*
G02*
X154695750Y-115349000I218750J0D01*
G01*
X155133250Y-115349000D01*
G75*
G02*
X155352000Y-115567750I0J-218750D01*
G01*
X155352000Y-116080250D01*
G75*
G02*
X155133250Y-116299000I-218750J0D01*
G01*
X154695750Y-116299000D01*
G75*
G02*
X154477000Y-116080250I0J218750D01*
G01*
G37*
%TD*%
%TO.C,C9*%
G36*
G01*
X144528250Y-120122500D02*
X144015750Y-120122500D01*
G75*
G02*
X143797000Y-119903750I0J218750D01*
G01*
X143797000Y-119466250D01*
G75*
G02*
X144015750Y-119247500I218750J0D01*
G01*
X144528250Y-119247500D01*
G75*
G02*
X144747000Y-119466250I0J-218750D01*
G01*
X144747000Y-119903750D01*
G75*
G02*
X144528250Y-120122500I-218750J0D01*
G01*
G37*
G36*
G01*
X144528250Y-118547500D02*
X144015750Y-118547500D01*
G75*
G02*
X143797000Y-118328750I0J218750D01*
G01*
X143797000Y-117891250D01*
G75*
G02*
X144015750Y-117672500I218750J0D01*
G01*
X144528250Y-117672500D01*
G75*
G02*
X144747000Y-117891250I0J-218750D01*
G01*
X144747000Y-118328750D01*
G75*
G02*
X144528250Y-118547500I-218750J0D01*
G01*
G37*
%TD*%
%TO.C,C10*%
G36*
G01*
X146306250Y-118522000D02*
X145793750Y-118522000D01*
G75*
G02*
X145575000Y-118303250I0J218750D01*
G01*
X145575000Y-117865750D01*
G75*
G02*
X145793750Y-117647000I218750J0D01*
G01*
X146306250Y-117647000D01*
G75*
G02*
X146525000Y-117865750I0J-218750D01*
G01*
X146525000Y-118303250D01*
G75*
G02*
X146306250Y-118522000I-218750J0D01*
G01*
G37*
G36*
G01*
X146306250Y-120097000D02*
X145793750Y-120097000D01*
G75*
G02*
X145575000Y-119878250I0J218750D01*
G01*
X145575000Y-119440750D01*
G75*
G02*
X145793750Y-119222000I218750J0D01*
G01*
X146306250Y-119222000D01*
G75*
G02*
X146525000Y-119440750I0J-218750D01*
G01*
X146525000Y-119878250D01*
G75*
G02*
X146306250Y-120097000I-218750J0D01*
G01*
G37*
%TD*%
%TO.C,C11*%
G36*
G01*
X150159000Y-129542250D02*
X150159000Y-129029750D01*
G75*
G02*
X150377750Y-128811000I218750J0D01*
G01*
X150815250Y-128811000D01*
G75*
G02*
X151034000Y-129029750I0J-218750D01*
G01*
X151034000Y-129542250D01*
G75*
G02*
X150815250Y-129761000I-218750J0D01*
G01*
X150377750Y-129761000D01*
G75*
G02*
X150159000Y-129542250I0J218750D01*
G01*
G37*
G36*
G01*
X151734000Y-129542250D02*
X151734000Y-129029750D01*
G75*
G02*
X151952750Y-128811000I218750J0D01*
G01*
X152390250Y-128811000D01*
G75*
G02*
X152609000Y-129029750I0J-218750D01*
G01*
X152609000Y-129542250D01*
G75*
G02*
X152390250Y-129761000I-218750J0D01*
G01*
X151952750Y-129761000D01*
G75*
G02*
X151734000Y-129542250I0J218750D01*
G01*
G37*
%TD*%
%TO.C,C12*%
G36*
G01*
X155036000Y-129542250D02*
X155036000Y-129029750D01*
G75*
G02*
X155254750Y-128811000I218750J0D01*
G01*
X155692250Y-128811000D01*
G75*
G02*
X155911000Y-129029750I0J-218750D01*
G01*
X155911000Y-129542250D01*
G75*
G02*
X155692250Y-129761000I-218750J0D01*
G01*
X155254750Y-129761000D01*
G75*
G02*
X155036000Y-129542250I0J218750D01*
G01*
G37*
G36*
G01*
X153461000Y-129542250D02*
X153461000Y-129029750D01*
G75*
G02*
X153679750Y-128811000I218750J0D01*
G01*
X154117250Y-128811000D01*
G75*
G02*
X154336000Y-129029750I0J-218750D01*
G01*
X154336000Y-129542250D01*
G75*
G02*
X154117250Y-129761000I-218750J0D01*
G01*
X153679750Y-129761000D01*
G75*
G02*
X153461000Y-129542250I0J218750D01*
G01*
G37*
%TD*%
%TO.C,C13*%
G36*
G01*
X153461000Y-131320250D02*
X153461000Y-130807750D01*
G75*
G02*
X153679750Y-130589000I218750J0D01*
G01*
X154117250Y-130589000D01*
G75*
G02*
X154336000Y-130807750I0J-218750D01*
G01*
X154336000Y-131320250D01*
G75*
G02*
X154117250Y-131539000I-218750J0D01*
G01*
X153679750Y-131539000D01*
G75*
G02*
X153461000Y-131320250I0J218750D01*
G01*
G37*
G36*
G01*
X155036000Y-131320250D02*
X155036000Y-130807750D01*
G75*
G02*
X155254750Y-130589000I218750J0D01*
G01*
X155692250Y-130589000D01*
G75*
G02*
X155911000Y-130807750I0J-218750D01*
G01*
X155911000Y-131320250D01*
G75*
G02*
X155692250Y-131539000I-218750J0D01*
G01*
X155254750Y-131539000D01*
G75*
G02*
X155036000Y-131320250I0J218750D01*
G01*
G37*
%TD*%
%TO.C,C15*%
G36*
G01*
X139745000Y-81282250D02*
X139745000Y-80769750D01*
G75*
G02*
X139963750Y-80551000I218750J0D01*
G01*
X140401250Y-80551000D01*
G75*
G02*
X140620000Y-80769750I0J-218750D01*
G01*
X140620000Y-81282250D01*
G75*
G02*
X140401250Y-81501000I-218750J0D01*
G01*
X139963750Y-81501000D01*
G75*
G02*
X139745000Y-81282250I0J218750D01*
G01*
G37*
G36*
G01*
X141320000Y-81282250D02*
X141320000Y-80769750D01*
G75*
G02*
X141538750Y-80551000I218750J0D01*
G01*
X141976250Y-80551000D01*
G75*
G02*
X142195000Y-80769750I0J-218750D01*
G01*
X142195000Y-81282250D01*
G75*
G02*
X141976250Y-81501000I-218750J0D01*
G01*
X141538750Y-81501000D01*
G75*
G02*
X141320000Y-81282250I0J218750D01*
G01*
G37*
%TD*%
%TO.C,J2*%
G36*
G01*
X160550000Y-131455000D02*
X160550000Y-132705000D01*
G75*
G02*
X160400000Y-132855000I-150000J0D01*
G01*
X160100000Y-132855000D01*
G75*
G02*
X159950000Y-132705000I0J150000D01*
G01*
X159950000Y-131455000D01*
G75*
G02*
X160100000Y-131305000I150000J0D01*
G01*
X160400000Y-131305000D01*
G75*
G02*
X160550000Y-131455000I0J-150000D01*
G01*
G37*
G36*
G01*
X159550000Y-131455000D02*
X159550000Y-132705000D01*
G75*
G02*
X159400000Y-132855000I-150000J0D01*
G01*
X159100000Y-132855000D01*
G75*
G02*
X158950000Y-132705000I0J150000D01*
G01*
X158950000Y-131455000D01*
G75*
G02*
X159100000Y-131305000I150000J0D01*
G01*
X159400000Y-131305000D01*
G75*
G02*
X159550000Y-131455000I0J-150000D01*
G01*
G37*
G36*
G01*
X158550000Y-131455000D02*
X158550000Y-132705000D01*
G75*
G02*
X158400000Y-132855000I-150000J0D01*
G01*
X158100000Y-132855000D01*
G75*
G02*
X157950000Y-132705000I0J150000D01*
G01*
X157950000Y-131455000D01*
G75*
G02*
X158100000Y-131305000I150000J0D01*
G01*
X158400000Y-131305000D01*
G75*
G02*
X158550000Y-131455000I0J-150000D01*
G01*
G37*
G36*
G01*
X157550000Y-131455000D02*
X157550000Y-132705000D01*
G75*
G02*
X157400000Y-132855000I-150000J0D01*
G01*
X157100000Y-132855000D01*
G75*
G02*
X156950000Y-132705000I0J150000D01*
G01*
X156950000Y-131455000D01*
G75*
G02*
X157100000Y-131305000I150000J0D01*
G01*
X157400000Y-131305000D01*
G75*
G02*
X157550000Y-131455000I0J-150000D01*
G01*
G37*
G36*
G01*
X162150000Y-135305000D02*
X162150000Y-136505000D01*
G75*
G02*
X161850000Y-136805000I-300000J0D01*
G01*
X161250000Y-136805000D01*
G75*
G02*
X160950000Y-136505000I0J300000D01*
G01*
X160950000Y-135305000D01*
G75*
G02*
X161250000Y-135005000I300000J0D01*
G01*
X161850000Y-135005000D01*
G75*
G02*
X162150000Y-135305000I0J-300000D01*
G01*
G37*
G36*
G01*
X156550000Y-135305000D02*
X156550000Y-136505000D01*
G75*
G02*
X156250000Y-136805000I-300000J0D01*
G01*
X155650000Y-136805000D01*
G75*
G02*
X155350000Y-136505000I0J300000D01*
G01*
X155350000Y-135305000D01*
G75*
G02*
X155650000Y-135005000I300000J0D01*
G01*
X156250000Y-135005000D01*
G75*
G02*
X156550000Y-135305000I0J-300000D01*
G01*
G37*
%TD*%
%TO.C,R1*%
G36*
G01*
X152050000Y-113027750D02*
X152050000Y-113540250D01*
G75*
G02*
X151831250Y-113759000I-218750J0D01*
G01*
X151393750Y-113759000D01*
G75*
G02*
X151175000Y-113540250I0J218750D01*
G01*
X151175000Y-113027750D01*
G75*
G02*
X151393750Y-112809000I218750J0D01*
G01*
X151831250Y-112809000D01*
G75*
G02*
X152050000Y-113027750I0J-218750D01*
G01*
G37*
G36*
G01*
X153625000Y-113027750D02*
X153625000Y-113540250D01*
G75*
G02*
X153406250Y-113759000I-218750J0D01*
G01*
X152968750Y-113759000D01*
G75*
G02*
X152750000Y-113540250I0J218750D01*
G01*
X152750000Y-113027750D01*
G75*
G02*
X152968750Y-112809000I218750J0D01*
G01*
X153406250Y-112809000D01*
G75*
G02*
X153625000Y-113027750I0J-218750D01*
G01*
G37*
%TD*%
%TO.C,R2*%
G36*
G01*
X153625000Y-114805750D02*
X153625000Y-115318250D01*
G75*
G02*
X153406250Y-115537000I-218750J0D01*
G01*
X152968750Y-115537000D01*
G75*
G02*
X152750000Y-115318250I0J218750D01*
G01*
X152750000Y-114805750D01*
G75*
G02*
X152968750Y-114587000I218750J0D01*
G01*
X153406250Y-114587000D01*
G75*
G02*
X153625000Y-114805750I0J-218750D01*
G01*
G37*
G36*
G01*
X152050000Y-114805750D02*
X152050000Y-115318250D01*
G75*
G02*
X151831250Y-115537000I-218750J0D01*
G01*
X151393750Y-115537000D01*
G75*
G02*
X151175000Y-115318250I0J218750D01*
G01*
X151175000Y-114805750D01*
G75*
G02*
X151393750Y-114587000I218750J0D01*
G01*
X151831250Y-114587000D01*
G75*
G02*
X152050000Y-114805750I0J-218750D01*
G01*
G37*
%TD*%
%TO.C,R5*%
G36*
G01*
X145053500Y-129034250D02*
X145053500Y-128521750D01*
G75*
G02*
X145272250Y-128303000I218750J0D01*
G01*
X145709750Y-128303000D01*
G75*
G02*
X145928500Y-128521750I0J-218750D01*
G01*
X145928500Y-129034250D01*
G75*
G02*
X145709750Y-129253000I-218750J0D01*
G01*
X145272250Y-129253000D01*
G75*
G02*
X145053500Y-129034250I0J218750D01*
G01*
G37*
G36*
G01*
X146628500Y-129034250D02*
X146628500Y-128521750D01*
G75*
G02*
X146847250Y-128303000I218750J0D01*
G01*
X147284750Y-128303000D01*
G75*
G02*
X147503500Y-128521750I0J-218750D01*
G01*
X147503500Y-129034250D01*
G75*
G02*
X147284750Y-129253000I-218750J0D01*
G01*
X146847250Y-129253000D01*
G75*
G02*
X146628500Y-129034250I0J218750D01*
G01*
G37*
%TD*%
%TO.C,R6*%
G36*
G01*
X149100250Y-129190000D02*
X148587750Y-129190000D01*
G75*
G02*
X148369000Y-128971250I0J218750D01*
G01*
X148369000Y-128533750D01*
G75*
G02*
X148587750Y-128315000I218750J0D01*
G01*
X149100250Y-128315000D01*
G75*
G02*
X149319000Y-128533750I0J-218750D01*
G01*
X149319000Y-128971250D01*
G75*
G02*
X149100250Y-129190000I-218750J0D01*
G01*
G37*
G36*
G01*
X149100250Y-130765000D02*
X148587750Y-130765000D01*
G75*
G02*
X148369000Y-130546250I0J218750D01*
G01*
X148369000Y-130108750D01*
G75*
G02*
X148587750Y-129890000I218750J0D01*
G01*
X149100250Y-129890000D01*
G75*
G02*
X149319000Y-130108750I0J-218750D01*
G01*
X149319000Y-130546250D01*
G75*
G02*
X149100250Y-130765000I-218750J0D01*
G01*
G37*
%TD*%
%TO.C,R7*%
G36*
G01*
X156207750Y-117139000D02*
X156720250Y-117139000D01*
G75*
G02*
X156939000Y-117357750I0J-218750D01*
G01*
X156939000Y-117795250D01*
G75*
G02*
X156720250Y-118014000I-218750J0D01*
G01*
X156207750Y-118014000D01*
G75*
G02*
X155989000Y-117795250I0J218750D01*
G01*
X155989000Y-117357750D01*
G75*
G02*
X156207750Y-117139000I218750J0D01*
G01*
G37*
G36*
G01*
X156207750Y-118714000D02*
X156720250Y-118714000D01*
G75*
G02*
X156939000Y-118932750I0J-218750D01*
G01*
X156939000Y-119370250D01*
G75*
G02*
X156720250Y-119589000I-218750J0D01*
G01*
X156207750Y-119589000D01*
G75*
G02*
X155989000Y-119370250I0J218750D01*
G01*
X155989000Y-118932750D01*
G75*
G02*
X156207750Y-118714000I218750J0D01*
G01*
G37*
%TD*%
%TO.C,R8*%
G36*
G01*
X158752250Y-118014000D02*
X158239750Y-118014000D01*
G75*
G02*
X158021000Y-117795250I0J218750D01*
G01*
X158021000Y-117357750D01*
G75*
G02*
X158239750Y-117139000I218750J0D01*
G01*
X158752250Y-117139000D01*
G75*
G02*
X158971000Y-117357750I0J-218750D01*
G01*
X158971000Y-117795250D01*
G75*
G02*
X158752250Y-118014000I-218750J0D01*
G01*
G37*
G36*
G01*
X158752250Y-119589000D02*
X158239750Y-119589000D01*
G75*
G02*
X158021000Y-119370250I0J218750D01*
G01*
X158021000Y-118932750D01*
G75*
G02*
X158239750Y-118714000I218750J0D01*
G01*
X158752250Y-118714000D01*
G75*
G02*
X158971000Y-118932750I0J-218750D01*
G01*
X158971000Y-119370250D01*
G75*
G02*
X158752250Y-119589000I-218750J0D01*
G01*
G37*
%TD*%
%TO.C,U2*%
G36*
G01*
X152884000Y-92987000D02*
X152884000Y-92687000D01*
G75*
G02*
X153034000Y-92537000I150000J0D01*
G01*
X154684000Y-92537000D01*
G75*
G02*
X154834000Y-92687000I0J-150000D01*
G01*
X154834000Y-92987000D01*
G75*
G02*
X154684000Y-93137000I-150000J0D01*
G01*
X153034000Y-93137000D01*
G75*
G02*
X152884000Y-92987000I0J150000D01*
G01*
G37*
G36*
G01*
X152884000Y-94257000D02*
X152884000Y-93957000D01*
G75*
G02*
X153034000Y-93807000I150000J0D01*
G01*
X154684000Y-93807000D01*
G75*
G02*
X154834000Y-93957000I0J-150000D01*
G01*
X154834000Y-94257000D01*
G75*
G02*
X154684000Y-94407000I-150000J0D01*
G01*
X153034000Y-94407000D01*
G75*
G02*
X152884000Y-94257000I0J150000D01*
G01*
G37*
G36*
G01*
X152884000Y-95527000D02*
X152884000Y-95227000D01*
G75*
G02*
X153034000Y-95077000I150000J0D01*
G01*
X154684000Y-95077000D01*
G75*
G02*
X154834000Y-95227000I0J-150000D01*
G01*
X154834000Y-95527000D01*
G75*
G02*
X154684000Y-95677000I-150000J0D01*
G01*
X153034000Y-95677000D01*
G75*
G02*
X152884000Y-95527000I0J150000D01*
G01*
G37*
G36*
G01*
X152884000Y-96797000D02*
X152884000Y-96497000D01*
G75*
G02*
X153034000Y-96347000I150000J0D01*
G01*
X154684000Y-96347000D01*
G75*
G02*
X154834000Y-96497000I0J-150000D01*
G01*
X154834000Y-96797000D01*
G75*
G02*
X154684000Y-96947000I-150000J0D01*
G01*
X153034000Y-96947000D01*
G75*
G02*
X152884000Y-96797000I0J150000D01*
G01*
G37*
G36*
G01*
X147934000Y-96797000D02*
X147934000Y-96497000D01*
G75*
G02*
X148084000Y-96347000I150000J0D01*
G01*
X149734000Y-96347000D01*
G75*
G02*
X149884000Y-96497000I0J-150000D01*
G01*
X149884000Y-96797000D01*
G75*
G02*
X149734000Y-96947000I-150000J0D01*
G01*
X148084000Y-96947000D01*
G75*
G02*
X147934000Y-96797000I0J150000D01*
G01*
G37*
G36*
G01*
X147934000Y-95527000D02*
X147934000Y-95227000D01*
G75*
G02*
X148084000Y-95077000I150000J0D01*
G01*
X149734000Y-95077000D01*
G75*
G02*
X149884000Y-95227000I0J-150000D01*
G01*
X149884000Y-95527000D01*
G75*
G02*
X149734000Y-95677000I-150000J0D01*
G01*
X148084000Y-95677000D01*
G75*
G02*
X147934000Y-95527000I0J150000D01*
G01*
G37*
G36*
G01*
X147934000Y-94257000D02*
X147934000Y-93957000D01*
G75*
G02*
X148084000Y-93807000I150000J0D01*
G01*
X149734000Y-93807000D01*
G75*
G02*
X149884000Y-93957000I0J-150000D01*
G01*
X149884000Y-94257000D01*
G75*
G02*
X149734000Y-94407000I-150000J0D01*
G01*
X148084000Y-94407000D01*
G75*
G02*
X147934000Y-94257000I0J150000D01*
G01*
G37*
G36*
G01*
X147934000Y-92987000D02*
X147934000Y-92687000D01*
G75*
G02*
X148084000Y-92537000I150000J0D01*
G01*
X149734000Y-92537000D01*
G75*
G02*
X149884000Y-92687000I0J-150000D01*
G01*
X149884000Y-92987000D01*
G75*
G02*
X149734000Y-93137000I-150000J0D01*
G01*
X148084000Y-93137000D01*
G75*
G02*
X147934000Y-92987000I0J150000D01*
G01*
G37*
%TD*%
%TO.C,U4*%
G36*
G01*
X138790000Y-92987000D02*
X138790000Y-92687000D01*
G75*
G02*
X138940000Y-92537000I150000J0D01*
G01*
X140590000Y-92537000D01*
G75*
G02*
X140740000Y-92687000I0J-150000D01*
G01*
X140740000Y-92987000D01*
G75*
G02*
X140590000Y-93137000I-150000J0D01*
G01*
X138940000Y-93137000D01*
G75*
G02*
X138790000Y-92987000I0J150000D01*
G01*
G37*
G36*
G01*
X138790000Y-94257000D02*
X138790000Y-93957000D01*
G75*
G02*
X138940000Y-93807000I150000J0D01*
G01*
X140590000Y-93807000D01*
G75*
G02*
X140740000Y-93957000I0J-150000D01*
G01*
X140740000Y-94257000D01*
G75*
G02*
X140590000Y-94407000I-150000J0D01*
G01*
X138940000Y-94407000D01*
G75*
G02*
X138790000Y-94257000I0J150000D01*
G01*
G37*
G36*
G01*
X138790000Y-95527000D02*
X138790000Y-95227000D01*
G75*
G02*
X138940000Y-95077000I150000J0D01*
G01*
X140590000Y-95077000D01*
G75*
G02*
X140740000Y-95227000I0J-150000D01*
G01*
X140740000Y-95527000D01*
G75*
G02*
X140590000Y-95677000I-150000J0D01*
G01*
X138940000Y-95677000D01*
G75*
G02*
X138790000Y-95527000I0J150000D01*
G01*
G37*
G36*
G01*
X138790000Y-96797000D02*
X138790000Y-96497000D01*
G75*
G02*
X138940000Y-96347000I150000J0D01*
G01*
X140590000Y-96347000D01*
G75*
G02*
X140740000Y-96497000I0J-150000D01*
G01*
X140740000Y-96797000D01*
G75*
G02*
X140590000Y-96947000I-150000J0D01*
G01*
X138940000Y-96947000D01*
G75*
G02*
X138790000Y-96797000I0J150000D01*
G01*
G37*
G36*
G01*
X143740000Y-96797000D02*
X143740000Y-96497000D01*
G75*
G02*
X143890000Y-96347000I150000J0D01*
G01*
X145540000Y-96347000D01*
G75*
G02*
X145690000Y-96497000I0J-150000D01*
G01*
X145690000Y-96797000D01*
G75*
G02*
X145540000Y-96947000I-150000J0D01*
G01*
X143890000Y-96947000D01*
G75*
G02*
X143740000Y-96797000I0J150000D01*
G01*
G37*
G36*
G01*
X143740000Y-95527000D02*
X143740000Y-95227000D01*
G75*
G02*
X143890000Y-95077000I150000J0D01*
G01*
X145540000Y-95077000D01*
G75*
G02*
X145690000Y-95227000I0J-150000D01*
G01*
X145690000Y-95527000D01*
G75*
G02*
X145540000Y-95677000I-150000J0D01*
G01*
X143890000Y-95677000D01*
G75*
G02*
X143740000Y-95527000I0J150000D01*
G01*
G37*
G36*
G01*
X143740000Y-94257000D02*
X143740000Y-93957000D01*
G75*
G02*
X143890000Y-93807000I150000J0D01*
G01*
X145540000Y-93807000D01*
G75*
G02*
X145690000Y-93957000I0J-150000D01*
G01*
X145690000Y-94257000D01*
G75*
G02*
X145540000Y-94407000I-150000J0D01*
G01*
X143890000Y-94407000D01*
G75*
G02*
X143740000Y-94257000I0J150000D01*
G01*
G37*
G36*
G01*
X143740000Y-92987000D02*
X143740000Y-92687000D01*
G75*
G02*
X143890000Y-92537000I150000J0D01*
G01*
X145540000Y-92537000D01*
G75*
G02*
X145690000Y-92687000I0J-150000D01*
G01*
X145690000Y-92987000D01*
G75*
G02*
X145540000Y-93137000I-150000J0D01*
G01*
X143890000Y-93137000D01*
G75*
G02*
X143740000Y-92987000I0J150000D01*
G01*
G37*
%TD*%
%TO.C,U3*%
G36*
G01*
X148330000Y-126624000D02*
X148080000Y-126624000D01*
G75*
G02*
X147955000Y-126499000I0J125000D01*
G01*
X147955000Y-124849000D01*
G75*
G02*
X148080000Y-124724000I125000J0D01*
G01*
X148330000Y-124724000D01*
G75*
G02*
X148455000Y-124849000I0J-125000D01*
G01*
X148455000Y-126499000D01*
G75*
G02*
X148330000Y-126624000I-125000J0D01*
G01*
G37*
G36*
G01*
X148980000Y-126624000D02*
X148730000Y-126624000D01*
G75*
G02*
X148605000Y-126499000I0J125000D01*
G01*
X148605000Y-124849000D01*
G75*
G02*
X148730000Y-124724000I125000J0D01*
G01*
X148980000Y-124724000D01*
G75*
G02*
X149105000Y-124849000I0J-125000D01*
G01*
X149105000Y-126499000D01*
G75*
G02*
X148980000Y-126624000I-125000J0D01*
G01*
G37*
G36*
G01*
X149630000Y-126624000D02*
X149380000Y-126624000D01*
G75*
G02*
X149255000Y-126499000I0J125000D01*
G01*
X149255000Y-124849000D01*
G75*
G02*
X149380000Y-124724000I125000J0D01*
G01*
X149630000Y-124724000D01*
G75*
G02*
X149755000Y-124849000I0J-125000D01*
G01*
X149755000Y-126499000D01*
G75*
G02*
X149630000Y-126624000I-125000J0D01*
G01*
G37*
G36*
G01*
X150280000Y-126624000D02*
X150030000Y-126624000D01*
G75*
G02*
X149905000Y-126499000I0J125000D01*
G01*
X149905000Y-124849000D01*
G75*
G02*
X150030000Y-124724000I125000J0D01*
G01*
X150280000Y-124724000D01*
G75*
G02*
X150405000Y-124849000I0J-125000D01*
G01*
X150405000Y-126499000D01*
G75*
G02*
X150280000Y-126624000I-125000J0D01*
G01*
G37*
G36*
G01*
X150930000Y-126624000D02*
X150680000Y-126624000D01*
G75*
G02*
X150555000Y-126499000I0J125000D01*
G01*
X150555000Y-124849000D01*
G75*
G02*
X150680000Y-124724000I125000J0D01*
G01*
X150930000Y-124724000D01*
G75*
G02*
X151055000Y-124849000I0J-125000D01*
G01*
X151055000Y-126499000D01*
G75*
G02*
X150930000Y-126624000I-125000J0D01*
G01*
G37*
G36*
G01*
X151580000Y-126624000D02*
X151330000Y-126624000D01*
G75*
G02*
X151205000Y-126499000I0J125000D01*
G01*
X151205000Y-124849000D01*
G75*
G02*
X151330000Y-124724000I125000J0D01*
G01*
X151580000Y-124724000D01*
G75*
G02*
X151705000Y-124849000I0J-125000D01*
G01*
X151705000Y-126499000D01*
G75*
G02*
X151580000Y-126624000I-125000J0D01*
G01*
G37*
G36*
G01*
X152230000Y-126624000D02*
X151980000Y-126624000D01*
G75*
G02*
X151855000Y-126499000I0J125000D01*
G01*
X151855000Y-124849000D01*
G75*
G02*
X151980000Y-124724000I125000J0D01*
G01*
X152230000Y-124724000D01*
G75*
G02*
X152355000Y-124849000I0J-125000D01*
G01*
X152355000Y-126499000D01*
G75*
G02*
X152230000Y-126624000I-125000J0D01*
G01*
G37*
G36*
G01*
X152880000Y-126624000D02*
X152630000Y-126624000D01*
G75*
G02*
X152505000Y-126499000I0J125000D01*
G01*
X152505000Y-124849000D01*
G75*
G02*
X152630000Y-124724000I125000J0D01*
G01*
X152880000Y-124724000D01*
G75*
G02*
X153005000Y-124849000I0J-125000D01*
G01*
X153005000Y-126499000D01*
G75*
G02*
X152880000Y-126624000I-125000J0D01*
G01*
G37*
G36*
G01*
X153530000Y-126624000D02*
X153280000Y-126624000D01*
G75*
G02*
X153155000Y-126499000I0J125000D01*
G01*
X153155000Y-124849000D01*
G75*
G02*
X153280000Y-124724000I125000J0D01*
G01*
X153530000Y-124724000D01*
G75*
G02*
X153655000Y-124849000I0J-125000D01*
G01*
X153655000Y-126499000D01*
G75*
G02*
X153530000Y-126624000I-125000J0D01*
G01*
G37*
G36*
G01*
X154180000Y-126624000D02*
X153930000Y-126624000D01*
G75*
G02*
X153805000Y-126499000I0J125000D01*
G01*
X153805000Y-124849000D01*
G75*
G02*
X153930000Y-124724000I125000J0D01*
G01*
X154180000Y-124724000D01*
G75*
G02*
X154305000Y-124849000I0J-125000D01*
G01*
X154305000Y-126499000D01*
G75*
G02*
X154180000Y-126624000I-125000J0D01*
G01*
G37*
G36*
G01*
X154180000Y-119624000D02*
X153930000Y-119624000D01*
G75*
G02*
X153805000Y-119499000I0J125000D01*
G01*
X153805000Y-117849000D01*
G75*
G02*
X153930000Y-117724000I125000J0D01*
G01*
X154180000Y-117724000D01*
G75*
G02*
X154305000Y-117849000I0J-125000D01*
G01*
X154305000Y-119499000D01*
G75*
G02*
X154180000Y-119624000I-125000J0D01*
G01*
G37*
G36*
G01*
X153530000Y-119624000D02*
X153280000Y-119624000D01*
G75*
G02*
X153155000Y-119499000I0J125000D01*
G01*
X153155000Y-117849000D01*
G75*
G02*
X153280000Y-117724000I125000J0D01*
G01*
X153530000Y-117724000D01*
G75*
G02*
X153655000Y-117849000I0J-125000D01*
G01*
X153655000Y-119499000D01*
G75*
G02*
X153530000Y-119624000I-125000J0D01*
G01*
G37*
G36*
G01*
X152880000Y-119624000D02*
X152630000Y-119624000D01*
G75*
G02*
X152505000Y-119499000I0J125000D01*
G01*
X152505000Y-117849000D01*
G75*
G02*
X152630000Y-117724000I125000J0D01*
G01*
X152880000Y-117724000D01*
G75*
G02*
X153005000Y-117849000I0J-125000D01*
G01*
X153005000Y-119499000D01*
G75*
G02*
X152880000Y-119624000I-125000J0D01*
G01*
G37*
G36*
G01*
X152230000Y-119624000D02*
X151980000Y-119624000D01*
G75*
G02*
X151855000Y-119499000I0J125000D01*
G01*
X151855000Y-117849000D01*
G75*
G02*
X151980000Y-117724000I125000J0D01*
G01*
X152230000Y-117724000D01*
G75*
G02*
X152355000Y-117849000I0J-125000D01*
G01*
X152355000Y-119499000D01*
G75*
G02*
X152230000Y-119624000I-125000J0D01*
G01*
G37*
G36*
G01*
X151580000Y-119624000D02*
X151330000Y-119624000D01*
G75*
G02*
X151205000Y-119499000I0J125000D01*
G01*
X151205000Y-117849000D01*
G75*
G02*
X151330000Y-117724000I125000J0D01*
G01*
X151580000Y-117724000D01*
G75*
G02*
X151705000Y-117849000I0J-125000D01*
G01*
X151705000Y-119499000D01*
G75*
G02*
X151580000Y-119624000I-125000J0D01*
G01*
G37*
G36*
G01*
X150930000Y-119624000D02*
X150680000Y-119624000D01*
G75*
G02*
X150555000Y-119499000I0J125000D01*
G01*
X150555000Y-117849000D01*
G75*
G02*
X150680000Y-117724000I125000J0D01*
G01*
X150930000Y-117724000D01*
G75*
G02*
X151055000Y-117849000I0J-125000D01*
G01*
X151055000Y-119499000D01*
G75*
G02*
X150930000Y-119624000I-125000J0D01*
G01*
G37*
G36*
G01*
X150280000Y-119624000D02*
X150030000Y-119624000D01*
G75*
G02*
X149905000Y-119499000I0J125000D01*
G01*
X149905000Y-117849000D01*
G75*
G02*
X150030000Y-117724000I125000J0D01*
G01*
X150280000Y-117724000D01*
G75*
G02*
X150405000Y-117849000I0J-125000D01*
G01*
X150405000Y-119499000D01*
G75*
G02*
X150280000Y-119624000I-125000J0D01*
G01*
G37*
G36*
G01*
X149630000Y-119624000D02*
X149380000Y-119624000D01*
G75*
G02*
X149255000Y-119499000I0J125000D01*
G01*
X149255000Y-117849000D01*
G75*
G02*
X149380000Y-117724000I125000J0D01*
G01*
X149630000Y-117724000D01*
G75*
G02*
X149755000Y-117849000I0J-125000D01*
G01*
X149755000Y-119499000D01*
G75*
G02*
X149630000Y-119624000I-125000J0D01*
G01*
G37*
G36*
G01*
X148980000Y-119624000D02*
X148730000Y-119624000D01*
G75*
G02*
X148605000Y-119499000I0J125000D01*
G01*
X148605000Y-117849000D01*
G75*
G02*
X148730000Y-117724000I125000J0D01*
G01*
X148980000Y-117724000D01*
G75*
G02*
X149105000Y-117849000I0J-125000D01*
G01*
X149105000Y-119499000D01*
G75*
G02*
X148980000Y-119624000I-125000J0D01*
G01*
G37*
G36*
G01*
X148330000Y-119624000D02*
X148080000Y-119624000D01*
G75*
G02*
X147955000Y-119499000I0J125000D01*
G01*
X147955000Y-117849000D01*
G75*
G02*
X148080000Y-117724000I125000J0D01*
G01*
X148330000Y-117724000D01*
G75*
G02*
X148455000Y-117849000I0J-125000D01*
G01*
X148455000Y-119499000D01*
G75*
G02*
X148330000Y-119624000I-125000J0D01*
G01*
G37*
%TD*%
D14*
%TO.C,U5*%
X142070000Y-84770000D03*
X142070000Y-83820000D03*
X142070000Y-82870000D03*
X139870000Y-82870000D03*
X139870000Y-84770000D03*
X139870000Y-83820000D03*
%TD*%
%TO.C,C6*%
G36*
G01*
X148291000Y-104137750D02*
X148291000Y-104650250D01*
G75*
G02*
X148072250Y-104869000I-218750J0D01*
G01*
X147634750Y-104869000D01*
G75*
G02*
X147416000Y-104650250I0J218750D01*
G01*
X147416000Y-104137750D01*
G75*
G02*
X147634750Y-103919000I218750J0D01*
G01*
X148072250Y-103919000D01*
G75*
G02*
X148291000Y-104137750I0J-218750D01*
G01*
G37*
G36*
G01*
X146716000Y-104137750D02*
X146716000Y-104650250D01*
G75*
G02*
X146497250Y-104869000I-218750J0D01*
G01*
X146059750Y-104869000D01*
G75*
G02*
X145841000Y-104650250I0J218750D01*
G01*
X145841000Y-104137750D01*
G75*
G02*
X146059750Y-103919000I218750J0D01*
G01*
X146497250Y-103919000D01*
G75*
G02*
X146716000Y-104137750I0J-218750D01*
G01*
G37*
%TD*%
%TO.C,C7*%
G36*
G01*
X151059000Y-98276999D02*
X151059000Y-98827001D01*
G75*
G02*
X150809001Y-99077000I-249999J0D01*
G01*
X150183999Y-99077000D01*
G75*
G02*
X149934000Y-98827001I0J249999D01*
G01*
X149934000Y-98276999D01*
G75*
G02*
X150183999Y-98027000I249999J0D01*
G01*
X150809001Y-98027000D01*
G75*
G02*
X151059000Y-98276999I0J-249999D01*
G01*
G37*
G36*
G01*
X152834000Y-98276999D02*
X152834000Y-98827001D01*
G75*
G02*
X152584001Y-99077000I-249999J0D01*
G01*
X151958999Y-99077000D01*
G75*
G02*
X151709000Y-98827001I0J249999D01*
G01*
X151709000Y-98276999D01*
G75*
G02*
X151958999Y-98027000I249999J0D01*
G01*
X152584001Y-98027000D01*
G75*
G02*
X152834000Y-98276999I0J-249999D01*
G01*
G37*
%TD*%
%TO.C,C14*%
G36*
G01*
X143690000Y-98276999D02*
X143690000Y-98827001D01*
G75*
G02*
X143440001Y-99077000I-249999J0D01*
G01*
X142814999Y-99077000D01*
G75*
G02*
X142565000Y-98827001I0J249999D01*
G01*
X142565000Y-98276999D01*
G75*
G02*
X142814999Y-98027000I249999J0D01*
G01*
X143440001Y-98027000D01*
G75*
G02*
X143690000Y-98276999I0J-249999D01*
G01*
G37*
G36*
G01*
X141915000Y-98276999D02*
X141915000Y-98827001D01*
G75*
G02*
X141665001Y-99077000I-249999J0D01*
G01*
X141039999Y-99077000D01*
G75*
G02*
X140790000Y-98827001I0J249999D01*
G01*
X140790000Y-98276999D01*
G75*
G02*
X141039999Y-98027000I249999J0D01*
G01*
X141665001Y-98027000D01*
G75*
G02*
X141915000Y-98276999I0J-249999D01*
G01*
G37*
%TD*%
%TO.C,R4*%
G36*
G01*
X148084250Y-103333000D02*
X147571750Y-103333000D01*
G75*
G02*
X147353000Y-103114250I0J218750D01*
G01*
X147353000Y-102676750D01*
G75*
G02*
X147571750Y-102458000I218750J0D01*
G01*
X148084250Y-102458000D01*
G75*
G02*
X148303000Y-102676750I0J-218750D01*
G01*
X148303000Y-103114250D01*
G75*
G02*
X148084250Y-103333000I-218750J0D01*
G01*
G37*
G36*
G01*
X148084250Y-101758000D02*
X147571750Y-101758000D01*
G75*
G02*
X147353000Y-101539250I0J218750D01*
G01*
X147353000Y-101101750D01*
G75*
G02*
X147571750Y-100883000I218750J0D01*
G01*
X148084250Y-100883000D01*
G75*
G02*
X148303000Y-101101750I0J-218750D01*
G01*
X148303000Y-101539250D01*
G75*
G02*
X148084250Y-101758000I-218750J0D01*
G01*
G37*
%TD*%
%TO.C,R9*%
G36*
G01*
X141602750Y-87675000D02*
X142115250Y-87675000D01*
G75*
G02*
X142334000Y-87893750I0J-218750D01*
G01*
X142334000Y-88331250D01*
G75*
G02*
X142115250Y-88550000I-218750J0D01*
G01*
X141602750Y-88550000D01*
G75*
G02*
X141384000Y-88331250I0J218750D01*
G01*
X141384000Y-87893750D01*
G75*
G02*
X141602750Y-87675000I218750J0D01*
G01*
G37*
G36*
G01*
X141602750Y-89250000D02*
X142115250Y-89250000D01*
G75*
G02*
X142334000Y-89468750I0J-218750D01*
G01*
X142334000Y-89906250D01*
G75*
G02*
X142115250Y-90125000I-218750J0D01*
G01*
X141602750Y-90125000D01*
G75*
G02*
X141384000Y-89906250I0J218750D01*
G01*
X141384000Y-89468750D01*
G75*
G02*
X141602750Y-89250000I218750J0D01*
G01*
G37*
%TD*%
%TO.C,R10*%
G36*
G01*
X140337250Y-88550000D02*
X139824750Y-88550000D01*
G75*
G02*
X139606000Y-88331250I0J218750D01*
G01*
X139606000Y-87893750D01*
G75*
G02*
X139824750Y-87675000I218750J0D01*
G01*
X140337250Y-87675000D01*
G75*
G02*
X140556000Y-87893750I0J-218750D01*
G01*
X140556000Y-88331250D01*
G75*
G02*
X140337250Y-88550000I-218750J0D01*
G01*
G37*
G36*
G01*
X140337250Y-90125000D02*
X139824750Y-90125000D01*
G75*
G02*
X139606000Y-89906250I0J218750D01*
G01*
X139606000Y-89468750D01*
G75*
G02*
X139824750Y-89250000I218750J0D01*
G01*
X140337250Y-89250000D01*
G75*
G02*
X140556000Y-89468750I0J-218750D01*
G01*
X140556000Y-89906250D01*
G75*
G02*
X140337250Y-90125000I-218750J0D01*
G01*
G37*
%TD*%
%TO.C,U1*%
G36*
G01*
X147065000Y-112095000D02*
X146865000Y-112095000D01*
G75*
G02*
X146765000Y-111995000I0J100000D01*
G01*
X146765000Y-110745000D01*
G75*
G02*
X146865000Y-110645000I100000J0D01*
G01*
X147065000Y-110645000D01*
G75*
G02*
X147165000Y-110745000I0J-100000D01*
G01*
X147165000Y-111995000D01*
G75*
G02*
X147065000Y-112095000I-100000J0D01*
G01*
G37*
G36*
G01*
X147715000Y-112095000D02*
X147515000Y-112095000D01*
G75*
G02*
X147415000Y-111995000I0J100000D01*
G01*
X147415000Y-110745000D01*
G75*
G02*
X147515000Y-110645000I100000J0D01*
G01*
X147715000Y-110645000D01*
G75*
G02*
X147815000Y-110745000I0J-100000D01*
G01*
X147815000Y-111995000D01*
G75*
G02*
X147715000Y-112095000I-100000J0D01*
G01*
G37*
G36*
G01*
X148365000Y-112095000D02*
X148165000Y-112095000D01*
G75*
G02*
X148065000Y-111995000I0J100000D01*
G01*
X148065000Y-110745000D01*
G75*
G02*
X148165000Y-110645000I100000J0D01*
G01*
X148365000Y-110645000D01*
G75*
G02*
X148465000Y-110745000I0J-100000D01*
G01*
X148465000Y-111995000D01*
G75*
G02*
X148365000Y-112095000I-100000J0D01*
G01*
G37*
G36*
G01*
X149015000Y-112095000D02*
X148815000Y-112095000D01*
G75*
G02*
X148715000Y-111995000I0J100000D01*
G01*
X148715000Y-110745000D01*
G75*
G02*
X148815000Y-110645000I100000J0D01*
G01*
X149015000Y-110645000D01*
G75*
G02*
X149115000Y-110745000I0J-100000D01*
G01*
X149115000Y-111995000D01*
G75*
G02*
X149015000Y-112095000I-100000J0D01*
G01*
G37*
G36*
G01*
X149665000Y-112095000D02*
X149465000Y-112095000D01*
G75*
G02*
X149365000Y-111995000I0J100000D01*
G01*
X149365000Y-110745000D01*
G75*
G02*
X149465000Y-110645000I100000J0D01*
G01*
X149665000Y-110645000D01*
G75*
G02*
X149765000Y-110745000I0J-100000D01*
G01*
X149765000Y-111995000D01*
G75*
G02*
X149665000Y-112095000I-100000J0D01*
G01*
G37*
G36*
G01*
X150315000Y-112095000D02*
X150115000Y-112095000D01*
G75*
G02*
X150015000Y-111995000I0J100000D01*
G01*
X150015000Y-110745000D01*
G75*
G02*
X150115000Y-110645000I100000J0D01*
G01*
X150315000Y-110645000D01*
G75*
G02*
X150415000Y-110745000I0J-100000D01*
G01*
X150415000Y-111995000D01*
G75*
G02*
X150315000Y-112095000I-100000J0D01*
G01*
G37*
G36*
G01*
X150315000Y-107795000D02*
X150115000Y-107795000D01*
G75*
G02*
X150015000Y-107695000I0J100000D01*
G01*
X150015000Y-106445000D01*
G75*
G02*
X150115000Y-106345000I100000J0D01*
G01*
X150315000Y-106345000D01*
G75*
G02*
X150415000Y-106445000I0J-100000D01*
G01*
X150415000Y-107695000D01*
G75*
G02*
X150315000Y-107795000I-100000J0D01*
G01*
G37*
G36*
G01*
X149665000Y-107795000D02*
X149465000Y-107795000D01*
G75*
G02*
X149365000Y-107695000I0J100000D01*
G01*
X149365000Y-106445000D01*
G75*
G02*
X149465000Y-106345000I100000J0D01*
G01*
X149665000Y-106345000D01*
G75*
G02*
X149765000Y-106445000I0J-100000D01*
G01*
X149765000Y-107695000D01*
G75*
G02*
X149665000Y-107795000I-100000J0D01*
G01*
G37*
G36*
G01*
X149015000Y-107795000D02*
X148815000Y-107795000D01*
G75*
G02*
X148715000Y-107695000I0J100000D01*
G01*
X148715000Y-106445000D01*
G75*
G02*
X148815000Y-106345000I100000J0D01*
G01*
X149015000Y-106345000D01*
G75*
G02*
X149115000Y-106445000I0J-100000D01*
G01*
X149115000Y-107695000D01*
G75*
G02*
X149015000Y-107795000I-100000J0D01*
G01*
G37*
G36*
G01*
X148365000Y-107795000D02*
X148165000Y-107795000D01*
G75*
G02*
X148065000Y-107695000I0J100000D01*
G01*
X148065000Y-106445000D01*
G75*
G02*
X148165000Y-106345000I100000J0D01*
G01*
X148365000Y-106345000D01*
G75*
G02*
X148465000Y-106445000I0J-100000D01*
G01*
X148465000Y-107695000D01*
G75*
G02*
X148365000Y-107795000I-100000J0D01*
G01*
G37*
G36*
G01*
X147715000Y-107795000D02*
X147515000Y-107795000D01*
G75*
G02*
X147415000Y-107695000I0J100000D01*
G01*
X147415000Y-106445000D01*
G75*
G02*
X147515000Y-106345000I100000J0D01*
G01*
X147715000Y-106345000D01*
G75*
G02*
X147815000Y-106445000I0J-100000D01*
G01*
X147815000Y-107695000D01*
G75*
G02*
X147715000Y-107795000I-100000J0D01*
G01*
G37*
G36*
G01*
X147065000Y-107795000D02*
X146865000Y-107795000D01*
G75*
G02*
X146765000Y-107695000I0J100000D01*
G01*
X146765000Y-106445000D01*
G75*
G02*
X146865000Y-106345000I100000J0D01*
G01*
X147065000Y-106345000D01*
G75*
G02*
X147165000Y-106445000I0J-100000D01*
G01*
X147165000Y-107695000D01*
G75*
G02*
X147065000Y-107795000I-100000J0D01*
G01*
G37*
%TD*%
D15*
X152654000Y-85726806D02*
X152654000Y-87501194D01*
X151966394Y-88188800D01*
X150800207Y-88188800D01*
X150190200Y-87601386D01*
X150190200Y-85626471D01*
X150876549Y-84963000D01*
X151890194Y-84963000D01*
X152654000Y-85726806D01*
D16*
G36*
X152654000Y-85726806D02*
G01*
X152654000Y-87501194D01*
X151966394Y-88188800D01*
X150800207Y-88188800D01*
X150190200Y-87601386D01*
X150190200Y-85626471D01*
X150876549Y-84963000D01*
X151890194Y-84963000D01*
X152654000Y-85726806D01*
G37*
D15*
X151892000Y-91389200D02*
X151894440Y-91413976D01*
X151901667Y-91437801D01*
X151913403Y-91459757D01*
X151929197Y-91479003D01*
X152233997Y-91783803D01*
X152253243Y-91799597D01*
X152275199Y-91811333D01*
X152299024Y-91818560D01*
X152323800Y-91821000D01*
X153541194Y-91821000D01*
X153873200Y-92153006D01*
X153873200Y-94107000D01*
X147931406Y-94107000D01*
X147320000Y-93495594D01*
X147320000Y-92457806D01*
X147956806Y-91821000D01*
X150444200Y-91821000D01*
X150468976Y-91818560D01*
X150492801Y-91811333D01*
X150514757Y-91799597D01*
X150534003Y-91783803D01*
X150838803Y-91479003D01*
X150854597Y-91459757D01*
X150866333Y-91437801D01*
X150873560Y-91413976D01*
X150876000Y-91389200D01*
X150876000Y-88442800D01*
X151892000Y-88442800D01*
X151892000Y-91389200D01*
D16*
G36*
X151892000Y-91389200D02*
G01*
X151894440Y-91413976D01*
X151901667Y-91437801D01*
X151913403Y-91459757D01*
X151929197Y-91479003D01*
X152233997Y-91783803D01*
X152253243Y-91799597D01*
X152275199Y-91811333D01*
X152299024Y-91818560D01*
X152323800Y-91821000D01*
X153541194Y-91821000D01*
X153873200Y-92153006D01*
X153873200Y-94107000D01*
X147931406Y-94107000D01*
X147320000Y-93495594D01*
X147320000Y-92457806D01*
X147956806Y-91821000D01*
X150444200Y-91821000D01*
X150468976Y-91818560D01*
X150492801Y-91811333D01*
X150514757Y-91799597D01*
X150534003Y-91783803D01*
X150838803Y-91479003D01*
X150854597Y-91459757D01*
X150866333Y-91437801D01*
X150873560Y-91413976D01*
X150876000Y-91389200D01*
X150876000Y-88442800D01*
X151892000Y-88442800D01*
X151892000Y-91389200D01*
G37*
M02*
