%TF.GenerationSoftware,KiCad,Pcbnew,(5.1.10)-1*%
%TF.CreationDate,2021-06-07T23:37:25-05:00*%
%TF.ProjectId,phMeter,70684d65-7465-4722-9e6b-696361645f70,rev?*%
%TF.SameCoordinates,Original*%
%TF.FileFunction,Legend,Bot*%
%TF.FilePolarity,Positive*%
%FSLAX46Y46*%
G04 Gerber Fmt 4.6, Leading zero omitted, Abs format (unit mm)*
G04 Created by KiCad (PCBNEW (5.1.10)-1) date 2021-06-07 23:37:25*
%MOMM*%
%LPD*%
G01*
G04 APERTURE LIST*
%ADD10C,0.150000*%
%ADD11C,0.254000*%
G04 APERTURE END LIST*
D10*
X138184000Y-128905095D02*
X138136380Y-128809857D01*
X138136380Y-128667000D01*
X138184000Y-128524142D01*
X138279238Y-128428904D01*
X138374476Y-128381285D01*
X138564952Y-128333666D01*
X138707809Y-128333666D01*
X138898285Y-128381285D01*
X138993523Y-128428904D01*
X139088761Y-128524142D01*
X139136380Y-128667000D01*
X139136380Y-128762238D01*
X139088761Y-128905095D01*
X139041142Y-128952714D01*
X138707809Y-128952714D01*
X138707809Y-128762238D01*
X139136380Y-129381285D02*
X138136380Y-129381285D01*
X139136380Y-129952714D01*
X138136380Y-129952714D01*
X139136380Y-130428904D02*
X138136380Y-130428904D01*
X138136380Y-130667000D01*
X138184000Y-130809857D01*
X138279238Y-130905095D01*
X138374476Y-130952714D01*
X138564952Y-131000333D01*
X138707809Y-131000333D01*
X138898285Y-130952714D01*
X138993523Y-130905095D01*
X139088761Y-130809857D01*
X139136380Y-130667000D01*
X139136380Y-130428904D01*
X140676380Y-128460666D02*
X141676380Y-128794000D01*
X140676380Y-129127333D01*
X141676380Y-129460666D02*
X140676380Y-129460666D01*
X140676380Y-129698761D01*
X140724000Y-129841619D01*
X140819238Y-129936857D01*
X140914476Y-129984476D01*
X141104952Y-130032095D01*
X141247809Y-130032095D01*
X141438285Y-129984476D01*
X141533523Y-129936857D01*
X141628761Y-129841619D01*
X141676380Y-129698761D01*
X141676380Y-129460666D01*
X141676380Y-130460666D02*
X140676380Y-130460666D01*
X140676380Y-130698761D01*
X140724000Y-130841619D01*
X140819238Y-130936857D01*
X140914476Y-130984476D01*
X141104952Y-131032095D01*
X141247809Y-131032095D01*
X141438285Y-130984476D01*
X141533523Y-130936857D01*
X141628761Y-130841619D01*
X141676380Y-130698761D01*
X141676380Y-130460666D01*
X144041761Y-128476523D02*
X144089380Y-128619380D01*
X144089380Y-128857476D01*
X144041761Y-128952714D01*
X143994142Y-129000333D01*
X143898904Y-129047952D01*
X143803666Y-129047952D01*
X143708428Y-129000333D01*
X143660809Y-128952714D01*
X143613190Y-128857476D01*
X143565571Y-128667000D01*
X143517952Y-128571761D01*
X143470333Y-128524142D01*
X143375095Y-128476523D01*
X143279857Y-128476523D01*
X143184619Y-128524142D01*
X143137000Y-128571761D01*
X143089380Y-128667000D01*
X143089380Y-128905095D01*
X143137000Y-129047952D01*
X143994142Y-130047952D02*
X144041761Y-130000333D01*
X144089380Y-129857476D01*
X144089380Y-129762238D01*
X144041761Y-129619380D01*
X143946523Y-129524142D01*
X143851285Y-129476523D01*
X143660809Y-129428904D01*
X143517952Y-129428904D01*
X143327476Y-129476523D01*
X143232238Y-129524142D01*
X143137000Y-129619380D01*
X143089380Y-129762238D01*
X143089380Y-129857476D01*
X143137000Y-130000333D01*
X143184619Y-130047952D01*
X144089380Y-130952714D02*
X144089380Y-130476523D01*
X143089380Y-130476523D01*
X146581761Y-128452714D02*
X146629380Y-128595571D01*
X146629380Y-128833666D01*
X146581761Y-128928904D01*
X146534142Y-128976523D01*
X146438904Y-129024142D01*
X146343666Y-129024142D01*
X146248428Y-128976523D01*
X146200809Y-128928904D01*
X146153190Y-128833666D01*
X146105571Y-128643190D01*
X146057952Y-128547952D01*
X146010333Y-128500333D01*
X145915095Y-128452714D01*
X145819857Y-128452714D01*
X145724619Y-128500333D01*
X145677000Y-128547952D01*
X145629380Y-128643190D01*
X145629380Y-128881285D01*
X145677000Y-129024142D01*
X146629380Y-129452714D02*
X145629380Y-129452714D01*
X145629380Y-129690809D01*
X145677000Y-129833666D01*
X145772238Y-129928904D01*
X145867476Y-129976523D01*
X146057952Y-130024142D01*
X146200809Y-130024142D01*
X146391285Y-129976523D01*
X146486523Y-129928904D01*
X146581761Y-129833666D01*
X146629380Y-129690809D01*
X146629380Y-129452714D01*
X146343666Y-130405095D02*
X146343666Y-130881285D01*
X146629380Y-130309857D02*
X145629380Y-130643190D01*
X146629380Y-130976523D01*
D11*
X155450116Y-99232357D02*
X155608866Y-100502357D01*
X155457676Y-99292833D02*
X155329164Y-99232357D01*
X155087259Y-99232357D01*
X154973866Y-99292833D01*
X154920950Y-99353309D01*
X154875592Y-99474261D01*
X154920950Y-99837119D01*
X154996545Y-99958071D01*
X155064580Y-100018547D01*
X155193092Y-100079023D01*
X155434997Y-100079023D01*
X155548390Y-100018547D01*
X154406902Y-100079023D02*
X154248152Y-98809023D01*
X154323747Y-99413785D02*
X153598033Y-99413785D01*
X153681188Y-100079023D02*
X153522438Y-98809023D01*
X152108807Y-100079023D02*
X151950057Y-98809023D01*
X151466247Y-98809023D01*
X151352854Y-98869500D01*
X151299938Y-98929976D01*
X151254580Y-99050928D01*
X151277259Y-99232357D01*
X151352854Y-99353309D01*
X151420890Y-99413785D01*
X151549402Y-99474261D01*
X152033211Y-99474261D01*
X150838807Y-100079023D02*
X150732973Y-99232357D01*
X150763211Y-99474261D02*
X150687616Y-99353309D01*
X150619580Y-99292833D01*
X150491069Y-99232357D01*
X150370116Y-99232357D01*
X149871188Y-100079023D02*
X149984580Y-100018547D01*
X150037497Y-99958071D01*
X150082854Y-99837119D01*
X150037497Y-99474261D01*
X149961902Y-99353309D01*
X149893866Y-99292833D01*
X149765354Y-99232357D01*
X149583926Y-99232357D01*
X149470533Y-99292833D01*
X149417616Y-99353309D01*
X149372259Y-99474261D01*
X149417616Y-99837119D01*
X149493211Y-99958071D01*
X149561247Y-100018547D01*
X149689759Y-100079023D01*
X149871188Y-100079023D01*
X148903569Y-100079023D02*
X148744819Y-98809023D01*
X148805295Y-99292833D02*
X148676783Y-99232357D01*
X148434878Y-99232357D01*
X148321485Y-99292833D01*
X148268569Y-99353309D01*
X148223211Y-99474261D01*
X148268569Y-99837119D01*
X148344164Y-99958071D01*
X148412200Y-100018547D01*
X148540711Y-100079023D01*
X148782616Y-100079023D01*
X148896009Y-100018547D01*
X147263152Y-100018547D02*
X147391664Y-100079023D01*
X147633569Y-100079023D01*
X147746961Y-100018547D01*
X147792319Y-99897595D01*
X147731842Y-99413785D01*
X147656247Y-99292833D01*
X147527735Y-99232357D01*
X147285830Y-99232357D01*
X147172438Y-99292833D01*
X147127080Y-99413785D01*
X147142200Y-99534738D01*
X147762080Y-99655690D01*
X145773926Y-99232357D02*
X145290116Y-99232357D01*
X145539580Y-98809023D02*
X145675652Y-99897595D01*
X145630295Y-100018547D01*
X145516902Y-100079023D01*
X145395950Y-100079023D01*
X144791188Y-100079023D02*
X144904580Y-100018547D01*
X144957497Y-99958071D01*
X145002854Y-99837119D01*
X144957497Y-99474261D01*
X144881902Y-99353309D01*
X144813866Y-99292833D01*
X144685354Y-99232357D01*
X144503926Y-99232357D01*
X144390533Y-99292833D01*
X144337616Y-99353309D01*
X144292259Y-99474261D01*
X144337616Y-99837119D01*
X144413211Y-99958071D01*
X144481247Y-100018547D01*
X144609759Y-100079023D01*
X144791188Y-100079023D01*
X155495473Y-102238023D02*
X155389640Y-101391357D01*
X155336723Y-100968023D02*
X155404759Y-101028500D01*
X155351842Y-101088976D01*
X155283807Y-101028500D01*
X155336723Y-100968023D01*
X155351842Y-101088976D01*
X154943628Y-102177547D02*
X154830235Y-102238023D01*
X154588330Y-102238023D01*
X154459819Y-102177547D01*
X154384223Y-102056595D01*
X154376664Y-101996119D01*
X154422021Y-101875166D01*
X154535414Y-101814690D01*
X154716842Y-101814690D01*
X154830235Y-101754214D01*
X154875592Y-101633261D01*
X154868033Y-101572785D01*
X154792438Y-101451833D01*
X154663926Y-101391357D01*
X154482497Y-101391357D01*
X154369104Y-101451833D01*
X153681188Y-102238023D02*
X153794580Y-102177547D01*
X153847497Y-102117071D01*
X153892854Y-101996119D01*
X153847497Y-101633261D01*
X153771902Y-101512309D01*
X153703866Y-101451833D01*
X153575354Y-101391357D01*
X153393926Y-101391357D01*
X153280533Y-101451833D01*
X153227616Y-101512309D01*
X153182259Y-101633261D01*
X153227616Y-101996119D01*
X153303211Y-102117071D01*
X153371247Y-102177547D01*
X153499759Y-102238023D01*
X153681188Y-102238023D01*
X152532140Y-102238023D02*
X152645533Y-102177547D01*
X152690890Y-102056595D01*
X152554819Y-100968023D01*
X151504045Y-102238023D02*
X151420890Y-101572785D01*
X151466247Y-101451833D01*
X151579640Y-101391357D01*
X151821545Y-101391357D01*
X151950057Y-101451833D01*
X151496485Y-102177547D02*
X151624997Y-102238023D01*
X151927378Y-102238023D01*
X152040771Y-102177547D01*
X152086128Y-102056595D01*
X152071009Y-101935642D01*
X151995414Y-101814690D01*
X151866902Y-101754214D01*
X151564521Y-101754214D01*
X151436009Y-101693738D01*
X150974878Y-101391357D02*
X150491069Y-101391357D01*
X150740533Y-100968023D02*
X150876604Y-102056595D01*
X150831247Y-102177547D01*
X150717854Y-102238023D01*
X150596902Y-102238023D01*
X149682199Y-102177547D02*
X149810711Y-102238023D01*
X150052616Y-102238023D01*
X150166009Y-102177547D01*
X150211366Y-102056595D01*
X150150890Y-101572785D01*
X150075295Y-101451833D01*
X149946783Y-101391357D01*
X149704878Y-101391357D01*
X149591485Y-101451833D01*
X149546128Y-101572785D01*
X149561247Y-101693738D01*
X150181128Y-101814690D01*
X148540711Y-102238023D02*
X148381961Y-100968023D01*
X148533152Y-102177547D02*
X148661664Y-102238023D01*
X148903569Y-102238023D01*
X149016961Y-102177547D01*
X149069878Y-102117071D01*
X149115235Y-101996119D01*
X149069878Y-101633261D01*
X148994283Y-101512309D01*
X148926247Y-101451833D01*
X148797735Y-101391357D01*
X148555830Y-101391357D01*
X148442438Y-101451833D01*
X146968330Y-102238023D02*
X146809580Y-100968023D01*
X146280414Y-101088976D02*
X146212378Y-101028500D01*
X146083866Y-100968023D01*
X145781485Y-100968023D01*
X145668092Y-101028500D01*
X145615176Y-101088976D01*
X145569819Y-101209928D01*
X145584938Y-101330880D01*
X145668092Y-101512309D01*
X146484521Y-102238023D01*
X145698330Y-102238023D01*
X144413211Y-102117071D02*
X144481247Y-102177547D01*
X144670235Y-102238023D01*
X144791188Y-102238023D01*
X144965057Y-102177547D01*
X145070890Y-102056595D01*
X145116247Y-101935642D01*
X145146485Y-101693738D01*
X145123807Y-101512309D01*
X145033092Y-101270404D01*
X144957497Y-101149452D01*
X144821426Y-101028500D01*
X144632438Y-100968023D01*
X144511485Y-100968023D01*
X144337616Y-101028500D01*
X144284699Y-101088976D01*
X152161723Y-104336547D02*
X152290235Y-104397023D01*
X152532140Y-104397023D01*
X152645533Y-104336547D01*
X152698450Y-104276071D01*
X152743807Y-104155119D01*
X152698450Y-103792261D01*
X152622854Y-103671309D01*
X152554819Y-103610833D01*
X152426307Y-103550357D01*
X152184402Y-103550357D01*
X152071009Y-103610833D01*
X151624997Y-104397023D02*
X151519164Y-103550357D01*
X151466247Y-103127023D02*
X151534283Y-103187500D01*
X151481366Y-103247976D01*
X151413330Y-103187500D01*
X151466247Y-103127023D01*
X151481366Y-103247976D01*
X151020235Y-104397023D02*
X150914402Y-103550357D01*
X150944640Y-103792261D02*
X150869045Y-103671309D01*
X150801009Y-103610833D01*
X150672497Y-103550357D01*
X150551545Y-103550357D01*
X149682200Y-104336547D02*
X149810711Y-104397023D01*
X150052616Y-104397023D01*
X150166009Y-104336547D01*
X150218926Y-104276071D01*
X150264283Y-104155119D01*
X150218926Y-103792261D01*
X150143330Y-103671309D01*
X150075295Y-103610833D01*
X149946783Y-103550357D01*
X149704878Y-103550357D01*
X149591485Y-103610833D01*
X148495354Y-103550357D02*
X148601188Y-104397023D01*
X149039640Y-103550357D02*
X149122795Y-104215595D01*
X149077438Y-104336547D01*
X148964045Y-104397023D01*
X148782616Y-104397023D01*
X148654104Y-104336547D01*
X148586069Y-104276071D01*
X147996426Y-104397023D02*
X147890592Y-103550357D01*
X147837676Y-103127023D02*
X147905711Y-103187500D01*
X147852795Y-103247976D01*
X147784759Y-103187500D01*
X147837676Y-103127023D01*
X147852795Y-103247976D01*
X147467259Y-103550357D02*
X146983450Y-103550357D01*
X147232914Y-103127023D02*
X147368985Y-104215595D01*
X147323628Y-104336547D01*
X147210235Y-104397023D01*
X147089283Y-104397023D01*
X152917676Y-106495547D02*
X152804283Y-106556023D01*
X152562378Y-106556023D01*
X152433866Y-106495547D01*
X152358271Y-106374595D01*
X152350711Y-106314119D01*
X152396069Y-106193166D01*
X152509461Y-106132690D01*
X152690890Y-106132690D01*
X152804283Y-106072214D01*
X152849640Y-105951261D01*
X152842080Y-105890785D01*
X152766485Y-105769833D01*
X152637973Y-105709357D01*
X152456545Y-105709357D01*
X152343152Y-105769833D01*
X151851783Y-105709357D02*
X151655235Y-106556023D01*
X151247021Y-105709357D01*
X150317200Y-106495547D02*
X150445711Y-106556023D01*
X150687616Y-106556023D01*
X150801009Y-106495547D01*
X150853926Y-106435071D01*
X150899283Y-106314119D01*
X150853926Y-105951261D01*
X150778330Y-105830309D01*
X150710295Y-105769833D01*
X150581783Y-105709357D01*
X150339878Y-105709357D01*
X150226485Y-105769833D01*
X149130354Y-105709357D02*
X149258866Y-106737452D01*
X149334461Y-106858404D01*
X149402497Y-106918880D01*
X149531009Y-106979357D01*
X149712438Y-106979357D01*
X149825830Y-106918880D01*
X149228628Y-106495547D02*
X149357140Y-106556023D01*
X149599045Y-106556023D01*
X149712438Y-106495547D01*
X149765354Y-106435071D01*
X149810711Y-106314119D01*
X149765354Y-105951261D01*
X149689759Y-105830309D01*
X149621723Y-105769833D01*
X149493211Y-105709357D01*
X149251307Y-105709357D01*
X149137914Y-105769833D01*
X147981307Y-105709357D02*
X148087140Y-106556023D01*
X148525592Y-105709357D02*
X148608747Y-106374595D01*
X148563390Y-106495547D01*
X148449997Y-106556023D01*
X148268569Y-106556023D01*
X148140057Y-106495547D01*
X148072021Y-106435071D01*
X147497497Y-105709357D02*
X147300950Y-106556023D01*
X146892735Y-105709357D02*
X147300950Y-106556023D01*
X147459700Y-106858404D01*
X147527735Y-106918880D01*
X147656247Y-106979357D01*
X152441426Y-108715023D02*
X152789164Y-108110261D01*
X153167140Y-108715023D02*
X153008390Y-107445023D01*
X152524580Y-107445023D01*
X152411188Y-107505500D01*
X152358271Y-107565976D01*
X152312914Y-107686928D01*
X152335592Y-107868357D01*
X152411188Y-107989309D01*
X152479223Y-108049785D01*
X152607735Y-108110261D01*
X153091545Y-108110261D01*
X151813985Y-108049785D02*
X151390652Y-108049785D01*
X151292378Y-108715023D02*
X151897140Y-108715023D01*
X151738390Y-107445023D01*
X151133628Y-107445023D01*
X150770771Y-107445023D02*
X150506188Y-108715023D01*
X149924104Y-107445023D01*
X148185414Y-108049785D02*
X148011545Y-108110261D01*
X147958628Y-108170738D01*
X147913271Y-108291690D01*
X147935950Y-108473119D01*
X148011545Y-108594071D01*
X148079580Y-108654547D01*
X148208092Y-108715023D01*
X148691902Y-108715023D01*
X148533152Y-107445023D01*
X148109819Y-107445023D01*
X147996426Y-107505500D01*
X147943509Y-107565976D01*
X147898152Y-107686928D01*
X147913271Y-107807880D01*
X147988866Y-107928833D01*
X148056902Y-107989309D01*
X148185414Y-108049785D01*
X148608747Y-108049785D01*
X147021247Y-107445023D02*
X146900295Y-107445023D01*
X146786902Y-107505500D01*
X146733985Y-107565976D01*
X146688628Y-107686928D01*
X146658390Y-107928833D01*
X146696188Y-108231214D01*
X146786902Y-108473119D01*
X146862497Y-108594071D01*
X146930533Y-108654547D01*
X147059045Y-108715023D01*
X147179997Y-108715023D01*
X147293390Y-108654547D01*
X147346307Y-108594071D01*
X147391664Y-108473119D01*
X147421902Y-108231214D01*
X147384104Y-107928833D01*
X147293390Y-107686928D01*
X147217795Y-107565976D01*
X147149759Y-107505500D01*
X147021247Y-107445023D01*
X153582914Y-109604023D02*
X153461961Y-109604023D01*
X153348569Y-109664500D01*
X153295652Y-109724976D01*
X153250295Y-109845928D01*
X153220057Y-110087833D01*
X153257854Y-110390214D01*
X153348569Y-110632119D01*
X153424164Y-110753071D01*
X153492200Y-110813547D01*
X153620711Y-110874023D01*
X153741664Y-110874023D01*
X153855057Y-110813547D01*
X153907973Y-110753071D01*
X153953330Y-110632119D01*
X153983569Y-110390214D01*
X153945771Y-110087833D01*
X153855057Y-109845928D01*
X153779461Y-109724976D01*
X153711426Y-109664500D01*
X153582914Y-109604023D01*
X152071009Y-109604023D02*
X152312914Y-109604023D01*
X152441426Y-109664500D01*
X152509461Y-109724976D01*
X152653092Y-109906404D01*
X152743807Y-110148309D01*
X152804283Y-110632119D01*
X152758926Y-110753071D01*
X152706009Y-110813547D01*
X152592616Y-110874023D01*
X152350711Y-110874023D01*
X152222200Y-110813547D01*
X152154164Y-110753071D01*
X152078569Y-110632119D01*
X152040771Y-110329738D01*
X152086128Y-110208785D01*
X152139045Y-110148309D01*
X152252438Y-110087833D01*
X152494342Y-110087833D01*
X152622854Y-110148309D01*
X152690890Y-110208785D01*
X152766485Y-110329738D01*
X150491069Y-109543547D02*
X151783747Y-111176404D01*
X150150890Y-109724976D02*
X150082854Y-109664500D01*
X149954342Y-109604023D01*
X149651961Y-109604023D01*
X149538569Y-109664500D01*
X149485652Y-109724976D01*
X149440295Y-109845928D01*
X149455414Y-109966880D01*
X149538569Y-110148309D01*
X150354997Y-110874023D01*
X149568807Y-110874023D01*
X148623866Y-109604023D02*
X148502914Y-109604023D01*
X148389521Y-109664500D01*
X148336604Y-109724976D01*
X148291247Y-109845928D01*
X148261009Y-110087833D01*
X148298807Y-110390214D01*
X148389521Y-110632119D01*
X148465116Y-110753071D01*
X148533152Y-110813547D01*
X148661664Y-110874023D01*
X148782616Y-110874023D01*
X148896009Y-110813547D01*
X148948926Y-110753071D01*
X148994283Y-110632119D01*
X149024521Y-110390214D01*
X148986723Y-110087833D01*
X148896009Y-109845928D01*
X148820414Y-109724976D01*
X148752378Y-109664500D01*
X148623866Y-109604023D01*
X147731842Y-109724976D02*
X147663807Y-109664500D01*
X147535295Y-109604023D01*
X147232914Y-109604023D01*
X147119521Y-109664500D01*
X147066604Y-109724976D01*
X147021247Y-109845928D01*
X147036366Y-109966880D01*
X147119521Y-110148309D01*
X147935950Y-110874023D01*
X147149759Y-110874023D01*
X145940235Y-110874023D02*
X146665950Y-110874023D01*
X146303092Y-110874023D02*
X146144342Y-109604023D01*
X146287973Y-109785452D01*
X146424045Y-109906404D01*
X146552557Y-109966880D01*
M02*
